<svg width="27" height="28" viewBox="0 0 27 28" fill="none" xmlns="http://www.w3.org/2000/svg">
<path d="M1.125 6.025C1.125 4.485 1.125 3.715 1.42475 3.1265C1.6884 2.60908 2.10908 2.1884 2.6265 1.92475C3.215 1.625 3.985 1.625 5.525 1.625H6.35C7.89 1.625 8.66 1.625 9.2485 1.92475C9.76592 2.1884 10.1866 2.60908 10.4502 3.1265C10.75 3.715 10.75 4.485 10.75 6.025V6.85C10.75 8.39 10.75 9.16 10.4502 9.7485C10.1866 10.2659 9.76592 10.6866 9.2485 10.9502C8.66 11.25 7.89 11.25 6.35 11.25H5.525C3.985 11.25 3.215 11.25 2.6265 10.9502C2.10908 10.6866 1.6884 10.2659 1.42475 9.7485C1.125 9.16 1.125 8.39 1.125 6.85V6.025ZM16.25 6.025C16.25 4.485 16.25 3.715 16.5498 3.1265C16.8134 2.60908 17.2341 2.1884 17.7515 1.92475C18.34 1.625 19.11 1.625 20.65 1.625H21.475C23.015 1.625 23.785 1.625 24.3735 1.92475C24.8909 2.1884 25.3116 2.60908 25.5752 3.1265C25.875 3.715 25.875 4.485 25.875 6.025V6.85C25.875 8.39 25.875 9.16 25.5752 9.7485C25.3116 10.2659 24.8909 10.6866 24.3735 10.9502C23.785 11.25 23.015 11.25 21.475 11.25H20.65C19.11 11.25 18.34 11.25 17.7515 10.9502C17.2341 10.6866 16.8134 10.2659 16.5498 9.7485C16.25 9.16 16.25 8.39 16.25 6.85V6.025ZM1.125 21.15C1.125 19.61 1.125 18.84 1.42475 18.2515C1.6884 17.7341 2.10908 17.3134 2.6265 17.0498C3.215 16.75 3.985 16.75 5.525 16.75H6.35C7.89 16.75 8.66 16.75 9.2485 17.0498C9.76592 17.3134 10.1866 17.7341 10.4502 18.2515C10.75 18.84 10.75 19.61 10.75 21.15V21.975C10.75 23.515 10.75 24.285 10.4502 24.8735C10.1866 25.3909 9.76592 25.8116 9.2485 26.0752C8.66 26.375 7.89 26.375 6.35 26.375H5.525C3.985 26.375 3.215 26.375 2.6265 26.0752C2.10908 25.8116 1.6884 25.3909 1.42475 24.8735C1.125 24.285 1.125 23.515 1.125 21.975V21.15ZM16.25 21.15C16.25 19.61 16.25 18.84 16.5498 18.2515C16.8134 17.7341 17.2341 17.3134 17.7515 17.0498C18.34 16.75 19.11 16.75 20.65 16.75H21.475C23.015 16.75 23.785 16.75 24.3735 17.0498C24.8909 17.3134 25.3116 17.7341 25.5752 18.2515C25.875 18.84 25.875 19.61 25.875 21.15V21.975C25.875 23.515 25.875 24.285 25.5752 24.8735C25.3116 25.3909 24.8909 25.8116 24.3735 26.0752C23.785 26.375 23.015 26.375 21.475 26.375H20.65C19.11 26.375 18.34 26.375 17.7515 26.0752C17.2341 25.8116 16.8134 25.3909 16.5498 24.8735C16.25 24.285 16.25 23.515 16.25 21.975V21.15Z" stroke="white" stroke-opacity="0.6" stroke-width="2" stroke-linejoin="round"/>
</svg>
