<svg width="28" height="30" viewBox="0 0 28 30" fill="none" xmlns="http://www.w3.org/2000/svg">
<path d="M27.4522 18.6642L25.3413 16.8595C25.4412 16.2472 25.4928 15.622 25.4928 14.9968C25.4928 14.3716 25.4412 13.7464 25.3413 13.1341L27.4522 11.3294C27.6114 11.1931 27.7253 11.0116 27.7789 10.8089C27.8324 10.6063 27.823 10.3922 27.7519 10.195L27.7229 10.1112C27.1417 8.48711 26.2716 6.98151 25.1544 5.6672L25.0964 5.59952C24.9609 5.44017 24.7802 5.32562 24.5783 5.27097C24.3764 5.21631 24.1626 5.22413 23.9652 5.29337L21.3452 6.22472C20.3784 5.43195 19.2988 4.80675 18.1322 4.36847L17.6263 1.62921C17.5881 1.4231 17.4881 1.23348 17.3396 1.08554C17.1911 0.937607 17.0011 0.838361 16.7948 0.800989L16.7078 0.784875C15.0288 0.481946 13.2628 0.481946 11.5838 0.784875L11.4968 0.800989C11.2905 0.838361 11.1005 0.937607 10.952 1.08554C10.8035 1.23348 10.7035 1.4231 10.6653 1.62921L10.1562 4.38136C8.99887 4.81973 7.92114 5.4446 6.96573 6.23116L4.32637 5.29337C4.12904 5.22358 3.91513 5.21548 3.71309 5.27017C3.51104 5.32485 3.33042 5.43973 3.19522 5.59952L3.13721 5.6672C2.02136 6.98244 1.15134 8.48779 0.568757 10.1112L0.539753 10.195C0.394733 10.5979 0.513971 11.049 0.83946 11.3294L2.97608 13.1534C2.87618 13.7593 2.82784 14.378 2.82784 14.9936C2.82784 15.6123 2.87618 16.2311 2.97608 16.8337L0.83946 18.6577C0.680247 18.794 0.566296 18.9756 0.51276 19.1782C0.459223 19.3808 0.468638 19.595 0.539753 19.7921L0.568757 19.8759C1.15206 21.5001 2.01573 22.9986 3.13721 24.3199L3.19522 24.3876C3.33075 24.547 3.51138 24.6615 3.7133 24.7162C3.91523 24.7708 4.12898 24.763 4.32637 24.6938L6.96573 23.756C7.92608 24.5455 8.99923 25.1707 10.1562 25.6058L10.6653 28.3579C10.7035 28.564 10.8035 28.7537 10.952 28.9016C11.1005 29.0495 11.2905 29.1488 11.4968 29.1861L11.5838 29.2023C13.2782 29.5068 15.0134 29.5068 16.7078 29.2023L16.7948 29.1861C17.0011 29.1488 17.1911 29.0495 17.3396 28.9016C17.4881 28.7537 17.5881 28.564 17.6263 28.3579L18.1322 25.6187C19.2984 25.1815 20.384 24.5543 21.3452 23.7624L23.9652 24.6938C24.1626 24.7636 24.3765 24.7717 24.5785 24.717C24.7806 24.6623 24.9612 24.5474 25.0964 24.3876L25.1544 24.3199C26.2759 22.9954 27.1396 21.5001 27.7229 19.8759L27.7519 19.7921C27.8969 19.3957 27.7776 18.9445 27.4522 18.6642ZM23.0532 13.5144C23.1338 14.001 23.1757 14.5005 23.1757 15C23.1757 15.4995 23.1338 15.999 23.0532 16.4857L22.8405 17.7779L25.2479 19.8372C24.8829 20.678 24.4223 21.4739 23.875 22.2091L20.8844 21.1488L19.8725 21.9803C19.1023 22.6119 18.245 23.1082 17.3169 23.4563L16.0891 23.9171L15.5122 27.0431C14.602 27.1462 13.6831 27.1462 12.773 27.0431L12.1961 23.9107L10.9779 23.4434C10.0595 23.0953 9.20548 22.599 8.44171 21.9706L7.42979 21.136L4.41983 22.2059C3.87198 21.4679 3.41436 20.6719 3.04698 19.834L5.48008 17.7554L5.27061 16.4663C5.19327 15.9861 5.15137 15.4899 5.15137 15C5.15137 14.5069 5.19005 14.0139 5.27061 13.5337L5.48008 12.2446L3.04698 10.166C3.41114 9.32491 3.87198 8.53214 4.41983 7.79415L7.42979 8.86407L8.44171 8.02941C9.20548 7.40099 10.0595 6.9047 10.9779 6.55665L12.1993 6.09581L12.7762 2.96339C13.6817 2.86027 14.6066 2.86027 15.5154 2.96339L16.0923 6.08937L17.3201 6.55021C18.245 6.89825 19.1055 7.39454 19.8757 8.02618L20.8876 8.85763L23.8782 7.79738C24.4261 8.53536 24.8837 9.33136 25.2511 10.1693L22.8438 12.2285L23.0532 13.5144ZM14.149 9.00587C11.0166 9.00587 8.47716 11.5453 8.47716 14.6777C8.47716 17.8102 11.0166 20.3496 14.149 20.3496C17.2815 20.3496 19.8209 17.8102 19.8209 14.6777C19.8209 11.5453 17.2815 9.00587 14.149 9.00587ZM16.7014 17.2301C16.3666 17.5658 15.9688 17.832 15.5307 18.0134C15.0927 18.1949 14.6231 18.2879 14.149 18.2871C13.1855 18.2871 12.2799 17.9101 11.5967 17.2301C11.261 16.8953 10.9947 16.4975 10.8133 16.0595C10.6319 15.6214 10.5389 15.1519 10.5397 14.6777C10.5397 13.7142 10.9167 12.8086 11.5967 12.1254C12.2799 11.4422 13.1855 11.0684 14.149 11.0684C15.1126 11.0684 16.0182 11.4422 16.7014 12.1254C17.0371 12.4602 17.3033 12.858 17.4847 13.296C17.6661 13.7341 17.7591 14.2036 17.7584 14.6777C17.7584 15.6413 17.3814 16.5469 16.7014 17.2301Z" fill="#FFBA25"/>
</svg>
