<svg width="29" height="30" viewBox="0 0 29 30" fill="none" xmlns="http://www.w3.org/2000/svg">
<path d="M27.8027 18.6642L25.6919 16.8595C25.7918 16.2472 25.8434 15.622 25.8434 14.9968C25.8434 14.3716 25.7918 13.7464 25.6919 13.1341L27.8027 11.3294C27.962 11.1931 28.0759 11.0116 28.1294 10.8089C28.183 10.6063 28.1736 10.3922 28.1024 10.195L28.0734 10.1112C27.4923 8.48711 26.6222 6.98151 25.505 5.6672L25.447 5.59952C25.3115 5.44017 25.1308 5.32562 24.9289 5.27097C24.727 5.21631 24.5132 5.22413 24.3158 5.29337L21.6958 6.22472C20.729 5.43195 19.6494 4.80675 18.4828 4.36847L17.9769 1.62921C17.9387 1.4231 17.8387 1.23348 17.6902 1.08554C17.5417 0.937607 17.3517 0.838361 17.1454 0.800989L17.0584 0.784876C15.3794 0.481946 13.6134 0.481946 11.9344 0.784876L11.8474 0.800989C11.6411 0.838361 11.4511 0.937607 11.3026 1.08554C11.1541 1.23348 11.0541 1.4231 11.0159 1.62921L10.5067 4.38136C9.34945 4.81973 8.27173 5.4446 7.31632 6.23116L4.67696 5.29337C4.47962 5.22358 4.26572 5.21548 4.06367 5.27017C3.86163 5.32485 3.681 5.43973 3.54581 5.59952L3.4878 5.6672C2.37194 6.98244 1.50192 8.48779 0.919342 10.1112L0.890339 10.195C0.745319 10.5979 0.864557 11.049 1.19005 11.3294L3.32667 13.1534C3.22676 13.7593 3.17842 14.378 3.17842 14.9936C3.17842 15.6123 3.22676 16.2311 3.32667 16.8337L1.19005 18.6577C1.03083 18.794 0.916882 18.9756 0.863346 19.1782C0.809809 19.3808 0.819224 19.595 0.890339 19.7921L0.919342 19.8759C1.50264 21.5001 2.36632 22.9986 3.4878 24.3199L3.54581 24.3876C3.68133 24.547 3.86196 24.6615 4.06389 24.7162C4.26581 24.7708 4.47956 24.763 4.67696 24.6938L7.31632 23.756C8.27667 24.5455 9.34981 25.1707 10.5067 25.6058L11.0159 28.3579C11.0541 28.564 11.1541 28.7537 11.3026 28.9016C11.4511 29.0495 11.6411 29.1488 11.8474 29.1861L11.9344 29.2023C13.6288 29.5068 15.364 29.5068 17.0584 29.2023L17.1454 29.1861C17.3517 29.1488 17.5417 29.0495 17.6902 28.9016C17.8387 28.7537 17.9387 28.564 17.9769 28.3579L18.4828 25.6187C19.6489 25.1815 20.7346 24.5543 21.6958 23.7624L24.3158 24.6938C24.5132 24.7636 24.7271 24.7717 24.9291 24.717C25.1312 24.6623 25.3118 24.5474 25.447 24.3876L25.505 24.3199C26.6265 22.9954 27.4901 21.5001 28.0734 19.8759L28.1024 19.7921C28.2475 19.3957 28.1282 18.9445 27.8027 18.6642ZM23.4038 13.5144C23.4844 14.001 23.5263 14.5005 23.5263 15C23.5263 15.4995 23.4844 15.999 23.4038 16.4857L23.1911 17.7779L25.5984 19.8372C25.2335 20.678 24.7728 21.4739 24.2256 22.2091L21.235 21.1488L20.2231 21.9803C19.4528 22.6119 18.5956 23.1082 17.6675 23.4563L16.4397 23.9171L15.8628 27.0431C14.9526 27.1462 14.0337 27.1462 13.1235 27.0431L12.5467 23.9107L11.3285 23.4434C10.4101 23.0953 9.55606 22.599 8.79229 21.9706L7.78038 21.136L4.77042 22.2059C4.22257 21.4679 3.76495 20.6719 3.39757 19.834L5.83067 17.7554L5.6212 16.4663C5.54385 15.9861 5.50196 15.4899 5.50196 15C5.50196 14.5069 5.54063 14.0139 5.6212 13.5337L5.83067 12.2446L3.39757 10.166C3.76173 9.32491 4.22257 8.53214 4.77042 7.79415L7.78038 8.86408L8.79229 8.02941C9.55606 7.40099 10.4101 6.9047 11.3285 6.55665L12.5499 6.09581L13.1268 2.96339C14.0323 2.86027 14.9572 2.86027 15.866 2.96339L16.4429 6.08937L17.6707 6.55021C18.5956 6.89825 19.4561 7.39454 20.2263 8.02619L21.2382 8.85763L24.2288 7.79738C24.7767 8.53536 25.2343 9.33136 25.6017 10.1693L23.1943 12.2285L23.4038 13.5144ZM14.4996 9.00587C11.3672 9.00587 8.82774 11.5453 8.82774 14.6777C8.82774 17.8102 11.3672 20.3496 14.4996 20.3496C17.632 20.3496 20.1715 17.8102 20.1715 14.6777C20.1715 11.5453 17.632 9.00587 14.4996 9.00587ZM17.052 17.2301C16.7172 17.5658 16.3194 17.832 15.8813 18.0134C15.4433 18.1949 14.9737 18.2879 14.4996 18.2871C13.536 18.2871 12.6305 17.9101 11.9473 17.2301C11.6115 16.8953 11.3453 16.4975 11.1639 16.0595C10.9825 15.6214 10.8895 15.1519 10.8902 14.6777C10.8902 13.7142 11.2673 12.8086 11.9473 12.1254C12.6305 11.4422 13.536 11.0684 14.4996 11.0684C15.4632 11.0684 16.3688 11.4422 17.052 12.1254C17.3877 12.4602 17.6539 12.858 17.8353 13.296C18.0167 13.7341 18.1097 14.2036 18.109 14.6777C18.109 15.6413 17.7319 16.5469 17.052 17.2301Z" fill="white" fill-opacity="0.6"/>
</svg>
