<svg width="33" height="26" viewBox="0 0 33 26" fill="none" xmlns="http://www.w3.org/2000/svg">
<path d="M3.09375 0.625C2.27324 0.625 1.48633 0.950948 0.906138 1.53114C0.325948 2.11133 0 2.89824 0 3.71875L0 7.84375H12.375C12.6485 7.84375 12.9108 7.9524 13.1042 8.1458C13.2976 8.33919 13.4062 8.6015 13.4062 8.875C13.4062 9.39681 13.5713 10.2032 14.0374 10.8509C14.4643 11.4449 15.1862 11.9688 16.5 11.9688C17.8138 11.9688 18.5357 11.4449 18.9626 10.8509C19.4288 10.2032 19.5938 9.39681 19.5938 8.875C19.5938 8.6015 19.7024 8.33919 19.8958 8.1458C20.0892 7.9524 20.3515 7.84375 20.625 7.84375H33V3.71875C33 2.89824 32.6741 2.11133 32.0939 1.53114C31.5137 0.950948 30.7268 0.625 29.9062 0.625H3.09375Z" fill="#FFBA25"/>
<path d="M33 9.90625H21.5511C21.4032 10.6796 21.0916 11.4123 20.6374 12.0554C19.8268 13.1815 18.4862 14.0312 16.5 14.0312C14.5138 14.0312 13.1732 13.1815 12.3626 12.0554C11.9084 11.4123 11.5969 10.6795 11.4489 9.90625H0V22.2812C0 23.1018 0.325948 23.8887 0.906138 24.4689C1.48633 25.0491 2.27324 25.375 3.09375 25.375H29.9062C30.7268 25.375 31.5137 25.0491 32.0939 24.4689C32.6741 23.8887 33 23.1018 33 22.2812V9.90625Z" fill="#FFBA25"/>
</svg>
