<svg width="40" height="40" viewBox="0 0 40 40" fill="none" xmlns="http://www.w3.org/2000/svg">
<g clip-path="url(#clip0_300_1117)">
<path d="M20.2432 0.75C31.0133 0.75 39.7432 9.47991 39.7432 20.25C39.7432 31.0201 31.0133 39.75 20.2432 39.75C9.47307 39.75 0.743164 31.0201 0.743164 20.25C0.743164 9.47991 9.47307 0.75 20.2432 0.75ZM20.5393 9.28125H19.9629C19.2414 9.28125 18.6966 9.69928 18.3285 10.5512L15.4925 17.7369H13.3463C12.7028 17.7394 12.1811 18.2829 12.1763 18.9557V18.9727C12.1811 19.6467 12.7028 20.1903 13.3463 20.1927H14.4992L11.7924 27.0433C11.7409 27.1941 11.7138 27.352 11.7119 27.5113C11.7119 27.8952 11.824 28.1963 12.0324 28.4303C12.2396 28.6642 12.5285 28.7812 12.8978 28.7812C13.1413 28.7773 13.3771 28.6953 13.5705 28.5473C13.7777 28.3973 13.9227 28.1792 14.0336 27.9293L17.0147 20.1927H19.0817C19.724 20.1903 20.2456 19.6455 20.2517 18.9727V18.9398C20.2456 18.2659 19.724 17.7211 19.0817 17.7199H17.9763L20.2505 11.7882L26.4503 27.9281C26.5624 28.178 26.7062 28.3961 26.9146 28.546C27.1108 28.6947 27.346 28.7776 27.5886 28.78C27.9566 28.78 28.2455 28.663 28.4539 28.429C28.6611 28.195 28.7732 27.894 28.7732 27.5101C28.7796 27.3503 28.7526 27.1909 28.694 27.0421L22.1737 10.55C21.8032 9.69806 21.2596 9.28125 20.5393 9.28125Z" fill="url(#paint0_linear_300_1117)"/>
</g>
<defs>
<linearGradient id="paint0_linear_300_1117" x1="0.743164" y1="0.124999" x2="39.7432" y2="0.749999" gradientUnits="userSpaceOnUse">
<stop stop-color="#5ADCB9"/>
<stop offset="1" stop-color="#FF6584"/>
</linearGradient>
<clipPath id="clip0_300_1117">
<rect width="39" height="39" fill="white" transform="translate(0.743164 0.75)"/>
</clipPath>
</defs>
</svg>
