<svg width="39" height="39" viewBox="0 0 39 39" fill="none" xmlns="http://www.w3.org/2000/svg">
<g clip-path="url(#clip0_300_1095)">
<path d="M19.7432 38.714C9.24923 38.714 0.743164 30.2079 0.743164 19.714C0.743164 9.22005 9.24923 0.713989 19.7432 0.713989C30.2371 0.713989 38.7432 9.22005 38.7432 19.714C38.7432 30.2079 30.2371 38.714 19.7432 38.714ZM17.8372 28.7176C18.3372 30.8706 19.0176 32.1934 19.7669 32.1934C20.9485 32.1934 21.959 28.8969 22.3628 24.2455C26.5903 26.2286 29.9509 27.0052 30.5447 25.9804C31.1372 24.958 28.7907 22.4298 24.9694 19.7484C28.805 17.0825 31.1598 14.565 30.572 13.5378C30.192 12.8764 28.6554 12.9607 26.4751 13.6304C26.402 13.5012 26.2961 13.3935 26.1681 13.3182C26.0401 13.2429 25.8945 13.2028 25.746 13.2017C25.6242 13.2034 25.5042 13.2308 25.3938 13.2821C25.2834 13.3334 25.1851 13.4074 25.1053 13.4994C25.0254 13.5913 24.9659 13.699 24.9307 13.8156C24.8954 13.9321 24.8851 14.0547 24.9005 14.1755C24.1049 14.4771 23.2546 14.8381 22.3652 15.2502C21.9614 10.5881 20.9509 7.28205 19.7669 7.28205C18.5842 7.28205 17.5748 10.5786 17.171 15.2288C12.9435 13.2469 9.58173 12.4702 8.98916 13.4951C8.61866 14.1363 9.39766 15.3666 10.9711 16.8533C10.9537 16.9244 10.9449 16.9974 10.945 17.0706C10.945 17.5563 11.325 17.9494 11.794 17.9494C11.9102 17.9497 12.0252 17.9254 12.1313 17.8781C12.9169 18.5272 13.7287 19.144 14.5645 19.7271C10.7289 22.393 8.37404 24.9105 8.96304 25.9377C9.55204 26.9637 12.9234 26.1954 17.1687 24.2253C17.2589 25.2691 17.38 26.2452 17.5249 27.1323C17.4105 27.2151 17.3175 27.324 17.2537 27.45C17.1899 27.576 17.1571 27.7154 17.158 27.8567C17.158 28.2806 17.4501 28.6357 17.8372 28.7176ZM18.3882 28.6428C18.5312 28.5673 18.6507 28.4539 18.7337 28.315C18.8166 28.1762 18.8598 28.0172 18.8585 27.8555C18.8618 27.6348 18.7809 27.4212 18.6322 27.2581C18.4835 27.095 18.2782 26.9948 18.0581 26.9779C17.9109 26.0279 17.8064 24.9936 17.7339 23.9581C18.4163 23.6294 19.0914 23.2858 19.7586 22.9274C20.4616 23.3074 21.1515 23.6624 21.8225 23.9878C21.7127 25.1452 21.5634 26.2986 21.3748 27.4458C20.7846 30.7874 19.9593 31.4904 19.9593 31.4904C19.7835 31.7256 19.6066 31.5498 19.6066 31.5498C18.8989 30.7281 18.545 29.2045 18.545 29.2045C18.4877 29.0187 18.4355 28.8314 18.3882 28.6428ZM12.5493 17.4744C12.612 17.349 12.6445 17.2108 12.6443 17.0706C12.6443 16.5837 12.2643 16.1919 11.794 16.1919C11.611 16.1918 11.4331 16.2523 11.2882 16.3641C9.64229 14.7847 9.50098 14.0116 9.50098 14.0116V14.0092C9.38579 13.7385 9.62685 13.6732 9.62685 13.6732C10.692 13.4713 12.1883 13.9309 12.1883 13.9309C13.5955 14.2515 15.3827 15.0044 17.1212 15.8522C17.0655 16.6129 17.0267 17.3746 17.0048 18.137C16.3267 18.5526 15.676 18.9706 15.0609 19.3874C14.2052 18.7748 13.3676 18.1372 12.5493 17.4756V17.4744ZM25.1582 14.7146C25.2353 14.7923 25.3271 14.854 25.4282 14.8962C25.5292 14.9384 25.6376 14.9602 25.7472 14.9604C26.1699 14.9604 26.5202 14.6398 26.5855 14.2218C28.7587 13.5402 29.6398 13.6197 29.9485 13.7041C29.9988 13.7178 30.0425 13.7491 30.0719 13.7921C30.1013 13.8352 30.1144 13.8873 30.1089 13.9392C30.0495 14.5769 28.9214 15.7287 28.9214 15.7287C27.5527 17.08 26.0753 18.3164 24.5039 19.4254C23.8555 18.9829 23.197 18.5553 22.529 18.1429C22.5078 17.3762 22.4694 16.6101 22.4139 15.8451C23.3164 15.4402 24.2312 15.0632 25.157 14.7146H25.1582ZM24.4765 20.0869C29.204 23.5164 29.9687 25.0637 30.0887 25.5232C30.1016 25.5734 30.0965 25.6265 30.0741 25.6732C30.0517 25.7199 30.0136 25.7572 29.9664 25.7786C29.3845 26.0457 27.8229 25.6479 27.8229 25.6479C25.9678 25.1396 24.1575 24.4799 22.4103 23.6755C22.4661 22.9262 22.5053 22.1436 22.529 21.3397C23.2095 20.9241 23.859 20.5037 24.4765 20.0869ZM16.9917 20.702C16.5144 20.3941 16.0429 20.0774 15.5774 19.752C16.0524 19.4397 16.5274 19.1369 16.9905 18.8495C16.9808 19.467 16.9812 20.0845 16.9917 20.702ZM17.006 21.3314C17.0297 22.1234 17.0677 22.8917 17.1224 23.6304C16.0575 24.1138 14.9762 24.5602 13.8805 24.9687C10.6897 26.1182 9.66841 25.7524 9.66841 25.7524C9.37629 25.7168 9.44279 25.4746 9.44279 25.4746C9.80141 24.4533 10.9462 23.3869 10.9462 23.3869C11.9282 22.3301 13.4755 21.1604 15.0787 20.0821C15.689 20.4977 16.3339 20.9169 17.006 21.3326V21.3314ZM22.5445 18.8139C23.1537 19.1761 23.5159 19.4029 23.5159 19.4029C23.6892 19.5252 23.859 19.6439 24.0229 19.7615C23.4565 20.151 22.9542 20.4764 22.5433 20.7305C22.5546 20.0913 22.555 19.4519 22.5445 18.8127V18.8139ZM21.8759 23.4261C21.2572 23.1328 20.724 22.8597 20.3013 22.6341C20.8713 22.3201 21.4359 21.9962 21.9947 21.6627C21.9662 22.2707 21.9234 22.8644 21.8759 23.4261ZM17.6187 21.7042C18.1445 22.02 18.6754 22.3272 19.2112 22.6257C18.6958 22.8906 18.1852 23.1387 17.6959 23.3667C17.663 22.8129 17.6372 22.2587 17.6187 21.7042ZM17.5997 21.0867C17.5775 20.2224 17.5684 19.3578 17.5724 18.4932C18.2913 18.0566 19.0165 17.6307 19.7479 17.2155C20.6172 17.6905 21.4009 18.1394 22.0255 18.5051C22.0303 18.9017 22.0255 19.1226 22.0255 19.1226C22.0428 19.7646 22.0404 20.4069 22.0184 21.0487C21.642 21.2744 21.4247 21.3907 21.4247 21.3907C20.8798 21.7237 20.325 22.0401 19.761 22.3396C19.3774 22.1258 19.1672 21.9952 19.1672 21.9952C18.6359 21.7074 18.1132 21.404 17.5997 21.0856V21.0867ZM20.363 16.8699C20.9805 16.5256 21.3594 16.3261 21.3594 16.3261C21.5446 16.2394 21.7275 16.1551 21.9056 16.0743C21.9614 16.7524 21.9923 17.3461 22.0089 17.8247C21.4657 17.4972 20.917 17.1789 20.363 16.8699ZM17.6508 16.1147C18.1614 16.3712 18.6649 16.6324 19.147 16.8901C18.6198 17.1822 18.0972 17.4826 17.5795 17.7914C17.5879 17.0861 17.6033 16.6597 17.6033 16.6597L17.6508 16.1135V16.1147ZM17.7125 15.4865C18.3099 9.67724 19.2658 8.23918 19.603 7.9043C19.6399 7.86776 19.6885 7.84545 19.7402 7.84132C19.792 7.8372 19.8435 7.85151 19.8857 7.88174C20.4082 8.25343 20.8475 9.80193 20.8475 9.80193C21.4021 11.8634 21.6978 13.8715 21.8545 15.4924C21.1542 15.8286 20.4613 16.1802 19.7764 16.5469C19.0965 16.1779 18.4084 15.8243 17.7125 15.4865ZM19.7384 21.1734C20.1271 21.1734 20.4998 21.019 20.7746 20.7442C21.0494 20.4694 21.2038 20.0967 21.2038 19.7081C21.2038 19.3194 21.0494 18.9467 20.7746 18.6719C20.4998 18.3971 20.1271 18.2427 19.7384 18.2427C19.3498 18.2427 18.977 18.3971 18.7022 18.6719C18.4274 18.9467 18.273 19.3194 18.273 19.7081C18.273 20.0967 18.4274 20.4694 18.7022 20.7442C18.977 21.019 19.3498 21.1734 19.7384 21.1734Z" fill="black"/>
</g>
<defs>
<clipPath id="clip0_300_1095">
<rect width="38" height="38" fill="white" transform="translate(0.743164 0.713989)"/>
</clipPath>
</defs>
</svg>
