<svg width="40" height="40" viewBox="0 0 40 40" fill="none" xmlns="http://www.w3.org/2000/svg">
<g clip-path="url(#clip0_300_1102)">
<path d="M19.7432 0.504028C30.5133 0.504028 39.2432 9.23393 39.2432 20.004C39.2432 30.7741 30.5133 39.504 19.7432 39.504C8.97307 39.504 0.243164 30.7741 0.243164 20.004C0.243164 9.23393 8.97307 0.504028 19.7432 0.504028ZM17.0546 9.05965C15.4093 8.92559 14.1381 9.33997 13.48 10.2845L8.95235 16.7524C8.29423 17.6957 8.31616 19.0668 8.97429 20.6158C9.8847 22.7499 11.9895 25.2763 14.884 27.3884C17.7676 29.5103 20.7828 30.7461 23.0521 30.9472C24.6852 31.0825 25.9685 30.6669 26.6267 29.7236L31.1434 23.2557C31.8015 22.3123 31.7795 20.9412 31.1214 19.3922C30.222 17.2582 28.1062 14.7317 25.2227 12.6087C22.3281 10.4978 19.3239 9.251 17.0546 9.05965ZM26.5462 24.2307C27.4054 24.383 28.1684 24.411 28.7948 24.3087C28.8362 24.3045 28.8775 24.3163 28.9105 24.3417C28.9434 24.367 28.9655 24.4039 28.9722 24.4449C28.9788 24.4859 28.9696 24.5279 28.9464 24.5624C28.9232 24.5969 28.8877 24.6212 28.8472 24.6304C28.1806 24.7401 27.3823 24.7096 26.4902 24.5524C26.448 24.5445 26.4106 24.5203 26.3861 24.485C26.3616 24.4497 26.352 24.4062 26.3594 24.3639C26.3668 24.3215 26.3905 24.2838 26.4255 24.2589C26.4604 24.234 26.5038 24.2238 26.5462 24.2307ZM25.2422 23.9333L25.2946 23.9394C25.5054 23.9991 25.7126 24.0527 25.9161 24.1002C25.9569 24.1113 25.9918 24.1377 26.0136 24.1739C26.0353 24.2101 26.0422 24.2533 26.0327 24.2945C26.0232 24.3357 25.9982 24.3716 25.9628 24.3947C25.9274 24.4177 25.8845 24.4262 25.843 24.4183C25.6334 24.3696 25.4213 24.3147 25.2068 24.2538C25.1664 24.2411 25.1325 24.2131 25.1123 24.1759C25.092 24.1386 25.0871 24.095 25.0985 24.0541C25.1099 24.0133 25.1367 23.9785 25.1733 23.9571C25.2099 23.9357 25.2534 23.9293 25.2946 23.9394L25.2422 23.9333ZM14.1064 10.7452C14.6329 9.992 15.675 9.74581 16.99 9.85793C19.1496 10.0371 22.0113 11.2388 24.7632 13.2607C27.5261 15.2814 29.5553 17.6738 30.4206 19.7067C30.9362 20.9412 31.0459 22.0418 30.5194 22.784L30.4864 22.8401C29.9502 23.5469 28.9301 23.7834 27.6358 23.681C25.4762 23.5018 22.6145 22.3002 19.8626 20.2795C17.1107 18.2576 15.0827 15.8652 14.2161 13.8213C13.7006 12.6087 13.5909 11.5422 14.0845 10.7891L14.1064 10.7452ZM13.1997 13.7287C13.285 13.7031 13.3764 13.7531 13.4008 13.8384C13.9456 15.7055 15.3679 17.5129 17.614 19.5641L17.8663 19.7932C17.9955 19.909 18.1259 20.0247 18.2587 20.1405C18.2751 20.1546 18.2884 20.1718 18.2981 20.1911C18.3077 20.2104 18.3135 20.2315 18.3149 20.253C18.3164 20.2745 18.3136 20.2961 18.3067 20.3166C18.2997 20.337 18.2888 20.3559 18.2746 20.3721C18.2605 20.3881 18.2434 20.4012 18.2243 20.4106C18.2051 20.4201 18.1843 20.4256 18.163 20.427C18.1418 20.4283 18.1204 20.4255 18.1002 20.4186C18.0801 20.4117 18.0614 20.4008 18.0454 20.3867C17.8711 20.2338 17.6981 20.0794 17.5263 19.9236L17.2764 19.6969C15.0583 17.6518 13.6445 15.8371 13.09 13.931C13.0779 13.8896 13.0826 13.8451 13.1032 13.8072C13.1237 13.7693 13.1584 13.7411 13.1997 13.7287ZM19.5994 13.3838C18.9851 13.3387 18.4927 13.4398 18.2514 13.7884C18.0101 14.1357 18.0759 14.6415 18.3172 15.2143C18.7438 16.2357 19.7639 17.4264 21.1447 18.4379C22.5268 19.4483 23.9527 20.054 25.0374 20.1442C25.6407 20.2002 26.1343 20.0991 26.3756 19.7517C26.6279 19.4032 26.5621 18.8986 26.3098 18.3258C25.882 17.3021 24.8619 16.1016 23.4811 15.0912C22.11 14.0797 20.6743 13.4849 19.5994 13.3838ZM13.0218 12.4356C13.043 12.4348 13.0643 12.4382 13.0843 12.4456C13.1042 12.453 13.1226 12.4642 13.1382 12.4787C13.1538 12.4932 13.1664 12.5106 13.1753 12.53C13.1842 12.5494 13.1892 12.5703 13.1899 12.5916C13.1985 12.7988 13.2216 13.0084 13.257 13.2192C13.2614 13.2406 13.2615 13.2625 13.2573 13.2839C13.253 13.3052 13.2445 13.3255 13.2323 13.3435C13.22 13.3615 13.2043 13.3768 13.186 13.3886C13.1677 13.4004 13.1472 13.4083 13.1257 13.412C13.1043 13.4157 13.0823 13.415 13.0611 13.41C13.0399 13.4051 13.02 13.3958 13.0024 13.383C12.9849 13.3701 12.9701 13.3538 12.959 13.3351C12.9478 13.3164 12.9406 13.2957 12.9377 13.2741C12.8993 13.0528 12.8753 12.8293 12.8658 12.605C12.8648 12.5835 12.868 12.5621 12.8753 12.5419C12.8827 12.5217 12.8939 12.5032 12.9084 12.4873C12.9229 12.4715 12.9403 12.4586 12.9598 12.4496C12.9792 12.4405 13.0003 12.4353 13.0218 12.4344V12.4356Z" fill="#1AD1A0"/>
</g>
<defs>
<clipPath id="clip0_300_1102">
<rect width="39" height="39" fill="white" transform="translate(0.243164 0.504028)"/>
</clipPath>
</defs>
</svg>
