<svg width="39" height="39" viewBox="0 0 39 39" fill="none" xmlns="http://www.w3.org/2000/svg">
<ellipse cx="19.5446" cy="19.25" rx="19.3014" ry="18.9856" fill="black"/>
<path d="M19.3452 7.25C14.7852 7.25 10.1053 8.24654 7.54492 9.87145V18.77C7.54492 25.6007 14.6251 28.9236 18.385 30.9914C18.6718 31.1603 19.005 31.25 19.3452 31.25C19.6854 31.25 20.0186 31.1603 20.3054 30.9914C24.2249 28.8129 31.5449 25.8587 31.5449 18.77V9.87145C28.9048 8.24654 24.3046 7.25 19.3452 7.25V7.25ZM24.1675 19.3373L24.7277 20.5187C24.7622 20.5706 24.7834 20.629 24.7897 20.6896C24.796 20.7501 24.7873 20.8112 24.7641 20.8682C24.741 20.9251 24.7041 20.9765 24.6562 21.0183C24.6083 21.0601 24.5507 21.0913 24.4878 21.1094L23.1677 21.6631C22.8719 21.7597 22.6282 21.9583 22.4876 22.2172L21.9676 23.4723C21.9143 23.5809 21.8194 23.6674 21.7011 23.7151C21.5828 23.7628 21.4496 23.7685 21.3271 23.7309L19.9674 23.1772C19.6794 23.1033 19.375 23.1033 19.087 23.1772L17.8071 23.6943C17.6898 23.7384 17.5588 23.74 17.4402 23.699C17.3217 23.658 17.2242 23.5772 17.1671 23.4729L16.5674 22.2543C16.4205 21.995 16.1991 21.7779 15.9274 21.6271L14.6475 21.1471C14.5821 21.131 14.5212 21.1022 14.4687 21.0627C14.4162 21.0233 14.3734 20.9739 14.3431 20.918C14.3128 20.8621 14.2958 20.8009 14.293 20.7385C14.2903 20.676 14.302 20.6138 14.3273 20.5558L14.9276 19.3007C14.9739 19.1734 14.9906 19.0386 14.9767 18.905C14.9629 18.7714 14.9188 18.6419 14.8473 18.5251L14.3273 17.3065C14.2813 17.1885 14.2845 17.059 14.3362 16.943C14.388 16.8271 14.4846 16.7331 14.6074 16.6793L15.928 16.1251C16.2223 16.0263 16.4651 15.8283 16.6076 15.5709L17.1275 14.3158C17.1476 14.2623 17.1798 14.2134 17.2222 14.1724C17.2645 14.1314 17.3159 14.0993 17.3728 14.0783C17.4298 14.0573 17.491 14.0479 17.5523 14.0506C17.6135 14.0534 17.6734 14.0683 17.7279 14.0944L19.0876 14.648C19.3877 14.7468 19.7178 14.7337 20.0076 14.6114L21.2875 14.0944C21.3453 14.0699 21.4077 14.0562 21.4712 14.0541C21.5348 14.052 21.5981 14.0615 21.6577 14.0821C21.7172 14.1027 21.7717 14.1339 21.8181 14.174C21.8645 14.2141 21.9019 14.2623 21.928 14.3158L22.5278 15.5714C22.6477 15.7929 22.8079 16.1251 23.0874 16.1987L24.4476 16.6422C24.5746 16.6817 24.6795 16.766 24.7393 16.8767C24.7992 16.9874 24.8093 17.1154 24.7673 17.2329L24.1675 18.488C24.0475 18.7602 24.0475 19.065 24.1675 19.3373V19.3373Z" stroke="#5ADCBA" stroke-width="2"/>
</svg>
