<svg width="39" height="39" viewBox="0 0 39 39" fill="none" xmlns="http://www.w3.org/2000/svg">
<g clip-path="url(#clip0_275_189)">
<path d="M38.3896 19.3546C38.3896 29.4538 30.4691 37.7037 20.5011 38.2299C20.1655 38.2476 19.8275 38.2569 19.4873 38.2569C18.4936 38.2569 17.5183 38.1805 16.5663 38.0323C15.7392 37.9042 14.9306 37.723 14.1437 37.4907C12.8838 37.1204 11.6794 36.6228 10.5446 36.0117C8.30404 34.8066 6.3351 33.1625 4.75196 31.1944C4.43335 30.7993 4.13092 30.3904 3.84465 29.9692C1.78703 26.9433 0.584961 23.2894 0.584961 19.3546C0.584961 8.91511 9.0478 0.452271 19.4873 0.452271C29.9267 0.452271 38.3896 8.91511 38.3896 19.3546Z" fill="#F99400"/>
<path d="M33.225 13.4787C32.7752 12.2782 31.959 11.2366 30.7747 10.3501C30.088 9.83631 29.19 9.37571 28.123 8.95676L29.3041 4.41711L25.5707 3.44504L24.4289 7.83111L22.0287 7.20697L23.1698 2.82089L19.4363 1.84875L18.2945 6.23483L10.3687 4.17182L9.40813 7.86279L10.4582 8.13665C11.1572 8.318 11.6162 8.50621 11.833 8.69833C12.0467 8.88964 12.1779 9.10798 12.2227 9.35105C12.2712 9.59486 12.188 10.1102 11.9827 10.901L8.11045 25.7768C7.90828 26.5537 7.72701 27.0421 7.5673 27.238C7.40759 27.4363 7.18925 27.5621 6.90845 27.6184C6.62684 27.6739 5.79285 27.5227 5.09383 27.3414L3.84473 29.9692C4.13099 30.3904 4.43343 30.7993 4.75204 31.1944L11.3517 32.9117L10.5446 36.0117C11.6795 36.6228 12.8839 37.1204 14.1438 37.4907L15.0827 33.8831L17.4019 34.4873C17.4289 34.4935 17.4567 34.4989 17.4837 34.5058L16.5663 38.0324C17.5183 38.1805 18.4936 38.2569 19.4873 38.2569C19.8275 38.2569 20.1655 38.2477 20.5011 38.2299L21.2741 35.2603C22.5217 35.4177 23.5956 35.4416 24.4891 35.3274C26.2104 35.1083 27.6546 34.5142 28.8173 33.5429C29.9808 32.5739 30.7469 31.3811 31.1157 29.9646C31.4213 28.7811 31.4189 27.6346 31.1103 26.5251C30.8002 25.4196 30.2377 24.4698 29.4199 23.6875C28.8598 23.1343 27.9934 22.5325 26.8284 21.8921C28.0968 21.7988 29.1607 21.5419 30.0317 21.1222C30.8966 20.7001 31.6218 20.1446 32.2074 19.4503C32.7884 18.759 33.1965 17.9721 33.4248 17.0925C33.7403 15.8828 33.6725 14.6776 33.225 13.4787ZM24.3733 27.4609C24.1333 28.3891 23.6642 29.1166 22.9714 29.6451C22.2771 30.1705 21.5295 30.4437 20.7309 30.4606C19.9332 30.4776 18.9672 30.3403 17.8354 30.0455L15.8888 29.5386C15.2385 29.3697 14.8527 29.2308 14.7238 29.1228C14.5957 29.0132 14.524 28.8635 14.5055 28.6676C14.4893 28.5125 14.5826 28.0303 14.7824 27.2079L16.2854 21.433L19.7364 22.3311C21.2517 22.7261 22.3403 23.1597 23.0061 23.6319C23.6704 24.1025 24.1163 24.6627 24.3424 25.3069C24.5685 25.9527 24.5793 26.6694 24.3733 27.4609ZM26.7002 16.4089C26.5251 17.084 26.1848 17.6318 25.6795 18.0515C25.1764 18.4727 24.5237 18.715 23.7252 18.7783C22.9259 18.8423 21.7617 18.6765 20.231 18.2783L17.3069 17.5168L18.9997 11.0129L21.9237 11.7736C23.6334 12.2188 24.7907 12.6331 25.3987 13.0158C26.0058 13.3985 26.4194 13.8861 26.6424 14.4725C26.8623 15.061 26.8838 15.7061 26.7002 16.4089Z" fill="#F0EFEB"/>
</g>
<defs>
<clipPath id="clip0_275_189">
<rect width="37.8046" height="37.8046" fill="white" transform="translate(0.584961 0.452271)"/>
</clipPath>
</defs>
</svg>
