<svg width="30" height="30" viewBox="0 0 30 30" fill="none" xmlns="http://www.w3.org/2000/svg">
<path fill-rule="evenodd" clip-rule="evenodd" d="M4.21967 9.4219C3.21403 8.41818 3.21245 6.77415 4.21617 5.76851L6.04111 3.94007C7.04483 2.93443 8.68885 2.93286 9.6945 3.93657L12.4319 1.19391C12.9159 0.70898 13.5727 0.43618 14.2579 0.435524C14.943 0.434868 15.6004 0.70641 16.0853 1.19042L28.8844 13.965C29.3693 14.449 29.6421 15.1058 29.6428 15.791C29.6434 16.4761 29.3719 17.1335 28.8879 17.6184L17.9382 28.589C17.4542 29.074 16.7974 29.3468 16.1123 29.3474C15.4271 29.3481 14.7698 29.0765 14.2848 28.5925L1.48575 15.8179C1.00082 15.3339 0.728021 14.6771 0.727365 13.992C0.726709 13.3068 0.998251 12.6495 1.48226 12.1646L4.21967 9.4219ZM6.04811 11.2468L3.3107 13.9895L16.1098 26.7641L27.0594 15.7935L14.2604 3.01886L11.5229 5.76152L13.3514 7.58646C14.357 8.59018 14.1761 10.417 13.3549 11.2398L11.5591 13.039C10.5262 14.0739 8.88219 14.0755 7.87655 13.0718L6.04811 11.2468ZM11.5264 9.4149L9.69799 7.58996L7.87305 9.4184L9.70149 11.2433L11.5264 9.4149Z" fill="white"/>
</svg>
