<svg width="26" height="27" viewBox="0 0 26 27" fill="none" xmlns="http://www.w3.org/2000/svg">
<path d="M22.75 17.875C22.75 17.6595 22.6644 17.4528 22.512 17.3005C22.3597 17.1481 22.153 17.0625 21.9375 17.0625H17.0625C16.847 17.0625 16.6403 17.1481 16.488 17.3005C16.3356 17.4528 16.25 17.6595 16.25 17.875C16.25 18.0905 16.3356 18.2972 16.488 18.4495C16.6403 18.6019 16.847 18.6875 17.0625 18.6875H21.9375C22.153 18.6875 22.3597 18.6019 22.512 18.4495C22.6644 18.2972 22.75 18.0905 22.75 17.875ZM22.75 13C22.75 12.7845 22.6644 12.5778 22.512 12.4255C22.3597 12.2731 22.153 12.1875 21.9375 12.1875H10.5625C10.347 12.1875 10.1403 12.2731 9.98798 12.4255C9.8356 12.5778 9.75 12.7845 9.75 13C9.75 13.2155 9.8356 13.4222 9.98798 13.5745C10.1403 13.7269 10.347 13.8125 10.5625 13.8125H21.9375C22.153 13.8125 22.3597 13.7269 22.512 13.5745C22.6644 13.4222 22.75 13.2155 22.75 13ZM22.75 8.125C22.75 7.90951 22.6644 7.70285 22.512 7.55048C22.3597 7.3981 22.153 7.3125 21.9375 7.3125H4.0625C3.84701 7.3125 3.64035 7.3981 3.48798 7.55048C3.3356 7.70285 3.25 7.90951 3.25 8.125C3.25 8.34049 3.3356 8.54715 3.48798 8.69952C3.64035 8.8519 3.84701 8.9375 4.0625 8.9375H21.9375C22.153 8.9375 22.3597 8.8519 22.512 8.69952C22.6644 8.54715 22.75 8.34049 22.75 8.125Z" fill="white"/>
</svg>
