<svg width="193" height="193" viewBox="0 0 193 193" fill="none" xmlns="http://www.w3.org/2000/svg">
<g clip-path="url(#clip0_300_856)">
<path d="M94.1325 101.988C109.42 101.988 121.814 94.3879 121.814 85.013C121.814 75.6381 109.42 68.0383 94.1325 68.0383C78.8445 68.0383 66.4512 75.6381 66.4512 85.013C66.4512 94.3879 78.8445 101.988 94.1325 101.988Z" fill="#6C63FF"/>
<path d="M26.8086 126.318C26.2222 126.145 25.7221 125.879 25.361 125.548C24.9999 125.216 24.791 124.831 24.7562 124.432L24.3535 119.758C24.3038 119.17 24.6365 118.594 25.2785 118.156C25.9205 117.719 26.8194 117.455 27.778 117.424L91.3148 115.365C92.2734 115.335 93.2126 115.539 93.9262 115.933C94.6399 116.326 95.0697 116.877 95.1213 117.465L95.5241 122.14C95.5737 122.728 95.241 123.304 94.599 123.741C93.957 124.179 93.0582 124.442 92.0997 124.474L28.5628 126.533C27.9579 126.553 27.3545 126.479 26.8086 126.318Z" fill="#6C63FF"/>
<path d="M70.6082 126.409C69.9901 126.226 69.4693 125.939 69.1064 125.581C68.7434 125.224 68.5532 124.811 68.5577 124.39L68.4824 115.588C68.4859 115.296 68.5831 115.008 68.7685 114.739C68.9538 114.471 69.2238 114.227 69.5628 114.022C69.9018 113.818 70.3033 113.656 70.7444 113.547C71.1854 113.437 71.6572 113.382 72.1329 113.384L101.118 114.951C101.886 114.954 102.854 115.683 103.633 116.268C103.877 116.452 104.088 116.611 104.242 116.707C104.31 116.749 104.374 116.793 104.435 116.837C104.989 117.242 105.289 117.754 105.281 118.282L105.218 122.963C105.209 123.552 104.819 124.114 104.135 124.527C103.451 124.94 102.527 125.169 101.567 125.165L72.1706 126.628C71.6298 126.627 71.0962 126.552 70.6082 126.409Z" fill="#2F2E41"/>
<path d="M88.7368 192.802H81.103C80.1431 192.802 79.2228 192.568 78.544 192.151C77.8653 191.735 77.4835 191.171 77.4824 190.582V150.931C77.4835 150.343 77.8653 149.779 78.544 149.362C79.2228 148.946 80.1431 148.712 81.103 148.711H88.7368C89.6967 148.712 90.617 148.946 91.2957 149.362C91.9745 149.779 92.3563 150.343 92.3573 150.931V190.582C92.3563 191.171 91.9745 191.735 91.2957 192.151C90.617 192.568 89.6967 192.802 88.7368 192.802Z" fill="#6C63FF"/>
<path d="M108.873 192.802H101.239C100.279 192.802 99.3585 192.568 98.6798 192.151C98.001 191.735 97.6192 191.171 97.6182 190.582V150.931C97.6192 150.343 98.001 149.779 98.6798 149.362C99.3585 148.946 100.279 148.712 101.239 148.711H108.873C109.832 148.712 110.753 148.946 111.431 149.362C112.11 149.779 112.492 150.343 112.493 150.931V190.582C112.492 191.171 112.11 191.735 111.431 192.151C110.753 192.568 109.832 192.802 108.873 192.802Z" fill="#6C63FF"/>
<path d="M97.8177 91.3044L97.8465 90.6701C95.9221 90.6372 94.2254 90.5632 92.9506 89.9921C92.5891 89.8209 92.292 89.6041 92.0795 89.3562C91.867 89.1084 91.744 88.8354 91.7189 88.5558C91.6965 88.385 91.7387 88.2133 91.8421 88.054C91.9455 87.8948 92.1074 87.7524 92.3152 87.6378C93.1614 87.1995 94.5232 87.3413 95.5157 87.6204L96.3716 87.8611L94.7303 80.5057L93.7055 80.5918L95.1015 86.8486C94.5301 86.7185 93.9146 86.6783 93.3113 86.7315C92.708 86.7848 92.136 86.9298 91.6474 87.1533C91.3188 87.3293 91.0609 87.5494 90.894 87.7966C90.7271 88.0437 90.6557 88.3112 90.6852 88.5781C90.7154 88.9538 90.8792 89.3208 91.1651 89.6536C91.4511 89.9863 91.8522 90.2767 92.3404 90.5044C93.9784 91.2385 96.1072 91.275 97.8177 91.3044Z" fill="#2F2E41"/>
<path d="M88.6367 81.1314H83.0654V81.7658H88.6367V81.1314Z" fill="#2F2E41"/>
<path d="M106.223 81.1314H100.651V81.7658H106.223V81.1314Z" fill="#2F2E41"/>
<path d="M125.669 141.544L100.12 110.3H100.48C101.371 110.3 102.226 110.082 102.856 109.696C103.486 109.309 103.841 108.785 103.842 108.239V107.604C103.841 107.058 103.486 106.534 102.856 106.147C102.226 105.761 101.371 105.543 100.48 105.543H89.101C88.2097 105.543 87.3551 105.761 86.7248 106.147C86.0946 106.534 85.7401 107.058 85.7391 107.604V108.239C85.7416 108.743 86.0461 109.229 86.5947 109.605C87.1432 109.98 87.8977 110.219 88.7147 110.276L63.0914 141.561C61.8728 143.049 61.2952 144.703 61.4136 146.366C61.5319 148.03 62.3423 149.647 63.7676 151.064C65.1929 152.481 67.1858 153.651 69.5566 154.462C71.9274 155.273 74.5973 155.699 77.3123 155.699H111.421C114.14 155.699 116.813 155.273 119.187 154.461C121.561 153.649 123.557 152.478 124.985 151.059C126.413 149.64 127.225 148.021 127.345 146.356C127.465 144.69 126.888 143.034 125.669 141.544Z" fill="#2F2E41"/>
<path d="M95.3288 117.371L152.961 100.841C153.831 100.592 154.827 100.565 155.729 100.765C156.631 100.966 157.367 101.378 157.775 101.911L161.009 106.151C161.415 106.685 161.459 107.295 161.132 107.849C160.804 108.402 160.133 108.853 159.264 109.103L101.631 125.634C100.761 125.883 99.7658 125.91 98.8634 125.709C97.961 125.508 97.2252 125.096 96.8177 124.563L93.5834 120.323C93.3809 120.059 93.2658 119.773 93.2447 119.482C93.2237 119.191 93.2971 118.9 93.4607 118.626C93.5885 118.409 93.7706 118.205 94.0002 118.022C94.3519 117.743 94.8075 117.52 95.3288 117.371Z" fill="#6C63FF"/>
<path d="M93.3521 117.27L118.726 107.995C119.59 107.741 120.585 107.707 121.49 107.901C122.396 108.095 123.139 108.502 123.556 109.032L129.955 116.915C130.162 117.179 130.282 117.465 130.307 117.757C130.333 118.049 130.265 118.342 130.106 118.617C129.946 118.893 129.7 119.147 129.38 119.364C129.06 119.582 128.674 119.758 128.242 119.883L101.138 126.304C100.428 126.513 99.0343 126.121 97.9146 125.806C97.5636 125.708 97.2603 125.622 97.0531 125.578C96.9619 125.558 96.8727 125.536 96.7858 125.513C95.998 125.3 95.3603 124.921 94.9876 124.445L91.6788 120.226C91.3877 119.854 91.2708 119.44 91.3412 119.03C91.4116 118.619 91.6665 118.229 92.0774 117.902C92.4158 117.633 92.8524 117.417 93.3521 117.27Z" fill="#2F2E41"/>
<path d="M72.2693 76.1842C71.899 76.1834 71.5442 76.0929 71.2824 75.9322C71.0207 75.7716 70.8732 75.554 70.8722 75.3269C70.8706 75.2594 70.8829 75.1921 70.909 75.1266L78.1442 55.5837C78.199 55.4365 78.3158 55.3007 78.483 55.1899C78.6503 55.0792 78.862 54.9973 79.0971 54.9524C79.3322 54.9076 79.5823 54.9014 79.8225 54.9344C80.0627 54.9675 80.2846 55.0387 80.4658 55.1408L104.453 68.7618C104.633 68.8645 104.766 68.9943 104.839 69.1385C104.912 69.2826 104.922 69.4359 104.868 69.5831C104.814 69.7303 104.698 69.8663 104.531 69.9774C104.365 70.0885 104.154 70.1709 103.919 70.2162L72.6899 76.1455C72.5536 76.1711 72.4119 76.1841 72.2693 76.1842Z" fill="#3F3D56"/>
<path d="M91.8883 61.8977L76.8213 60.059L77.0584 59.4174L90.3787 61.0413L91.8883 61.8977Z" fill="white"/>
<path d="M103.753 68.6372L74.9453 65.1221L75.1824 64.4772L102.243 67.7773L103.753 68.6372Z" fill="white"/>
<path d="M93.4474 71.9971L91.285 72.4069L73.0742 70.1847L73.3113 69.5399L93.4474 71.9971Z" fill="white"/>
<path d="M163.687 76.4829C166.198 76.4829 168.233 75.2346 168.233 73.6947C168.233 72.1548 166.198 70.9065 163.687 70.9065C161.175 70.9065 159.14 72.1548 159.14 73.6947C159.14 75.2346 161.175 76.4829 163.687 76.4829Z" fill="#6C63FF"/>
<path d="M105.227 4.78567C107.021 4.78567 108.475 3.89401 108.475 2.79408C108.475 1.69416 107.021 0.80249 105.227 0.80249C103.434 0.80249 101.979 1.69416 101.979 2.79408C101.979 3.89401 103.434 4.78567 105.227 4.78567Z" fill="#FF6584"/>
<path d="M34.4265 66.525C36.2201 66.525 37.6742 65.6333 37.6742 64.5334C37.6742 63.4335 36.2201 62.5418 34.4265 62.5418C32.6328 62.5418 31.1787 63.4335 31.1787 64.5334C31.1787 65.6333 32.6328 66.525 34.4265 66.525Z" fill="#FF6584"/>
<path d="M148.097 59.7536C149.891 59.7536 151.345 58.8619 151.345 57.762C151.345 56.6621 149.891 55.7704 148.097 55.7704C146.304 55.7704 144.85 56.6621 144.85 57.762C144.85 58.8619 146.304 59.7536 148.097 59.7536Z" fill="#6C63FF"/>
<path d="M49.3659 86.8392C51.1596 86.8392 52.6137 85.9475 52.6137 84.8476C52.6137 83.7477 51.1596 82.856 49.3659 82.856C47.5722 82.856 46.1182 83.7477 46.1182 84.8476C46.1182 85.9475 47.5722 86.8392 49.3659 86.8392Z" fill="#6C63FF"/>
<path d="M151.995 92.4156C153.789 92.4156 155.243 91.524 155.243 90.424C155.243 89.3241 153.789 88.4324 151.995 88.4324C150.201 88.4324 148.747 89.3241 148.747 90.424C148.747 91.524 150.201 92.4156 151.995 92.4156Z" fill="#E6E6E6"/>
<path d="M123.415 21.515C125.208 21.515 126.663 20.6234 126.663 19.5234C126.663 18.4235 125.208 17.5319 123.415 17.5319C121.621 17.5319 120.167 18.4235 120.167 19.5234C120.167 20.6234 121.621 21.515 123.415 21.515Z" fill="#CCCCCC"/>
<path d="M0.660429 43.4132C4.06116 43.5446 7.36271 44.1683 10.2944 45.2332C13.2262 46.2981 15.7046 47.7739 17.5267 49.5397C18.0373 50.0402 18.7039 50.5903 18.3504 51.2065C18.2272 51.4427 17.977 51.6463 17.6407 51.7841C17.3044 51.9218 16.9018 51.9855 16.4987 51.9648C15.9962 51.8985 15.5433 51.7326 15.2097 51.4928C14.8762 51.2529 14.6806 50.9525 14.6531 50.6377C14.6256 50.323 14.7677 50.0114 15.0576 49.7511C15.3474 49.4908 15.7689 49.2962 16.2569 49.1973C18.6156 48.5803 20.9952 49.5338 22.9164 50.2947C27.2941 52.0286 32.1092 53.5967 37.4138 53.7943C42.3217 53.9771 47.5847 52.797 50.3146 50.1871C50.7922 49.7305 49.6064 49.3085 49.1311 49.7629C46.4238 52.3513 40.9506 53.2809 36.1918 52.8809C33.3559 52.6064 30.6175 52.0363 28.0953 51.1952C26.7873 50.779 25.5187 50.3175 24.2758 49.8325C23.093 49.3264 21.8394 48.8857 20.5296 48.5155C18.3451 47.9653 15.4533 48.0083 13.9274 49.2752C12.5039 50.4571 13.604 52.4248 15.9849 52.7571C16.5072 52.8203 17.0469 52.8029 17.5556 52.7067C18.0643 52.6105 18.5261 52.4383 18.8996 52.2057C19.2731 51.9731 19.5467 51.6873 19.6957 51.3739C19.8448 51.0605 19.8647 50.7293 19.7537 50.4101C19.5161 49.714 18.6615 49.0329 17.9999 48.464C16.0122 46.7493 13.4225 45.3299 10.4216 44.3103C7.42074 43.2908 4.08508 42.697 0.66035 42.5728C-0.221266 42.546 -0.218967 43.3865 0.66035 43.4132L0.660429 43.4132Z" fill="#CCCCCC"/>
<path d="M192.74 68.8541C190.461 67.9545 188.563 66.7366 187.2 65.3001C185.837 63.8637 185.048 62.2496 184.899 60.5902C184.861 60.1212 184.746 59.5807 185.381 59.2369C185.616 59.1021 185.918 59.0201 186.239 59.0044C186.559 58.9887 186.879 59.0401 187.146 59.1503C187.453 59.3158 187.663 59.5387 187.743 59.7845C187.823 60.0304 187.769 60.2856 187.589 60.5107C187.409 60.7358 187.113 60.9184 186.748 61.0303C186.382 61.1422 185.966 61.1772 185.565 61.1298C183.537 60.9976 182.487 59.7698 181.633 58.7847C179.689 56.5399 177.336 54.3064 173.777 52.9082C170.484 51.6146 166.083 51.1832 162.537 52.3469C161.917 52.5505 162.474 53.1254 163.091 52.9228C166.608 51.7687 170.996 52.424 174.048 53.833C175.844 54.6977 177.386 55.7446 178.606 56.9282C179.251 57.5282 179.84 58.1502 180.397 58.7826C180.899 59.4152 181.491 60.0193 182.166 60.5877C183.336 61.4891 185.371 62.1466 187.232 61.6295C187.646 61.4979 188.005 61.3087 188.279 61.0769C188.553 60.8452 188.735 60.5773 188.81 60.2948C188.885 60.0123 188.851 59.7229 188.711 59.4499C188.571 59.1768 188.329 58.9276 188.004 58.7222C187.681 58.5542 187.295 58.4379 186.881 58.3838C186.467 58.3297 186.037 58.3395 185.631 58.4123C185.225 58.485 184.854 58.6185 184.552 58.8007C184.251 58.983 184.027 59.2082 183.903 59.4563C183.711 60.0397 183.707 60.6404 183.891 61.2248C184.187 62.8881 185.088 64.4894 186.528 65.9108C187.968 67.3322 189.909 68.5375 192.209 69.4378C192.804 69.666 193.334 69.0817 192.74 68.8541L192.74 68.8541Z" fill="#CCCCCC"/>
<path d="M80.6687 13.7103C77.964 13.6058 75.3381 13.1097 73.0063 12.2627C70.6746 11.4157 68.7034 10.242 67.2542 8.83759C66.8481 8.43948 66.3179 8.00197 66.5991 7.51193C66.697 7.32403 66.896 7.16207 67.1635 7.05251C67.431 6.94295 67.7512 6.89228 68.0717 6.90878C68.4714 6.96154 68.8317 7.09347 69.097 7.28422C69.3623 7.47497 69.5178 7.71394 69.5397 7.96428C69.5616 8.21462 69.4485 8.46242 69.218 8.66946C68.9874 8.8765 68.6523 9.03127 68.2641 9.10991C66.3882 9.60061 64.4955 8.84227 62.9674 8.23705C59.4856 6.85801 55.656 5.61086 51.437 5.4537C47.5335 5.30831 43.3476 6.24686 41.1764 8.32268C40.7965 8.68585 41.7397 9.02144 42.1176 8.66005C44.2709 6.60136 48.624 5.86197 52.4089 6.18017C54.6644 6.39843 56.8424 6.85187 58.8484 7.52083C59.8887 7.8519 60.8977 8.2189 61.8862 8.6047C62.8269 9.00722 63.8241 9.35774 64.8658 9.65214C66.6032 10.0898 68.9032 10.0556 70.1168 9.04796C70.3742 8.80918 70.537 8.53679 70.592 8.25255C70.6471 7.96831 70.593 7.68011 70.4339 7.41099C70.2749 7.14187 70.0154 6.8993 69.6762 6.70268C69.337 6.50605 68.9275 6.36081 68.4804 6.27859C68.065 6.22837 67.6357 6.24215 67.2311 6.31869C66.8265 6.39523 66.4592 6.53214 66.1621 6.71715C65.8651 6.90215 65.6475 7.12947 65.529 7.37873C65.4104 7.62798 65.3946 7.89138 65.4829 8.14531C65.7794 8.71194 66.2532 9.23768 66.8778 9.69311C68.4587 11.0569 70.5184 12.1858 72.9052 12.9967C75.2919 13.8077 77.9449 14.2799 80.6688 14.3787C81.37 14.4 81.3681 13.7315 80.6688 13.7102L80.6687 13.7103Z" fill="#CCCCCC"/>
<path d="M83.1423 34.8871H79.8945V41.4309H83.1423V34.8871Z" fill="#CCCCCC"/>
<path d="M30.6306 30.3205L32.8877 28.9364L25.4715 24.3886L23.2144 25.7727L30.6306 30.3205Z" fill="#B3B3B3"/>
<path d="M121.946 44.0724L124.203 45.4565L131.619 40.9088L129.362 39.5247L121.946 44.0724Z" fill="#B3B3B3"/>
<path d="M29.7097 100.634L31.9668 102.018L39.383 97.4699L37.1259 96.0858L29.7097 100.634Z" fill="#FF6584"/>
</g>
<defs>
<clipPath id="clip0_300_856">
<rect width="193" height="192" fill="white" transform="translate(0 0.80249)"/>
</clipPath>
</defs>
</svg>
