<svg width="32" height="32" viewBox="0 0 32 32" fill="none" xmlns="http://www.w3.org/2000/svg">
<rect y="0.5" width="31.08" height="31.5" rx="4" fill="black"/>
<path d="M14.883 8.80001C10.383 9.29001 6.87305 13.11 6.87305 17.75C6.87305 20.137 7.82126 22.4261 9.50909 24.114C11.1969 25.8018 13.4861 26.75 15.873 26.75C20.503 26.75 24.323 23.25 24.823 18.75C24.913 17.96 24.043 17.33 23.283 17.8C22.4667 18.3211 21.5253 18.6131 20.5574 18.6457C19.5895 18.6782 18.6307 18.4499 17.7812 17.9848C16.9318 17.5197 16.2229 16.8348 15.7289 16.0019C15.2349 15.1689 14.9738 14.2185 14.973 13.25C14.973 12.19 15.283 11.19 15.813 10.36C16.263 9.69001 15.773 8.73001 14.883 8.80001Z" fill="white"/>
</svg>
