<svg width="32" height="33" viewBox="0 0 32 33" fill="none" xmlns="http://www.w3.org/2000/svg">
<rect y="0.80481" width="31.08" height="31.5" rx="4" fill="#FFBA25"/>
<ellipse cx="15.54" cy="16.5548" rx="12.125" ry="12.4375" fill="white"/>
<path d="M14.0391 19.7244C14.0495 19.1046 14.1198 18.615 14.25 18.2556C14.3802 17.8962 14.6458 17.4978 15.0469 17.0603L16.0703 16.0056C16.5078 15.5108 16.7266 14.9796 16.7266 14.4119C16.7266 13.865 16.5833 13.4379 16.2969 13.1306C16.0104 12.8181 15.5938 12.6619 15.0469 12.6619C14.5156 12.6619 14.0885 12.8025 13.7656 13.0837C13.4427 13.365 13.2812 13.7426 13.2812 14.2166H11.8359C11.8464 13.3728 12.1458 12.6931 12.7344 12.1775C13.3281 11.6567 14.099 11.3962 15.0469 11.3962C16.0312 11.3962 16.7969 11.6619 17.3438 12.1931C17.8958 12.7192 18.1719 13.4431 18.1719 14.365C18.1719 15.2764 17.75 16.1749 16.9062 17.0603L16.0547 17.9041C15.6745 18.3259 15.4844 18.9327 15.4844 19.7244H14.0391ZM13.9766 22.2009C13.9766 21.9666 14.0469 21.7712 14.1875 21.615C14.3333 21.4535 14.5469 21.3728 14.8281 21.3728C15.1094 21.3728 15.3229 21.4535 15.4688 21.615C15.6146 21.7712 15.6875 21.9666 15.6875 22.2009C15.6875 22.4353 15.6146 22.6306 15.4688 22.7869C15.3229 22.9379 15.1094 23.0134 14.8281 23.0134C14.5469 23.0134 14.3333 22.9379 14.1875 22.7869C14.0469 22.6306 13.9766 22.4353 13.9766 22.2009Z" fill="#FFBA25"/>
</svg>
