<svg width="32" height="32" viewBox="0 0 32 32" fill="none" xmlns="http://www.w3.org/2000/svg">
<rect width="31.08" height="31.5" rx="4" fill="#1AD1A0"/>
<path d="M24.8818 18.4148L23.3467 17.1023C23.4193 16.657 23.4568 16.2023 23.4568 15.7476C23.4568 15.2929 23.4193 14.8383 23.3467 14.3929L24.8818 13.0804C24.9976 12.9813 25.0805 12.8493 25.1194 12.7019C25.1584 12.5546 25.1515 12.3988 25.0998 12.2554L25.0787 12.1945C24.6561 11.0133 24.0232 9.91834 23.2107 8.96248L23.1686 8.91326C23.07 8.79736 22.9386 8.71405 22.7918 8.67431C22.6449 8.63456 22.4895 8.64024 22.3459 8.6906L20.4404 9.36794C19.7373 8.79138 18.9522 8.33669 18.1037 8.01794L17.7357 6.02576C17.708 5.87586 17.6353 5.73795 17.5273 5.63036C17.4193 5.52277 17.2811 5.45059 17.1311 5.42341L17.0678 5.41169C15.8467 5.19138 14.5623 5.19138 13.3412 5.41169L13.2779 5.42341C13.1279 5.45059 12.9897 5.52277 12.8817 5.63036C12.7737 5.73795 12.701 5.87586 12.6732 6.02576L12.3029 8.02732C11.4613 8.34614 10.6775 8.80058 9.98262 9.37263L8.06309 8.6906C7.91957 8.63984 7.76401 8.63395 7.61706 8.67373C7.47012 8.7135 7.33876 8.79704 7.24043 8.91326L7.19825 8.96248C6.38671 9.91902 5.75397 11.0138 5.33028 12.1945L5.30918 12.2554C5.20372 12.5484 5.29043 12.8765 5.52715 13.0804L7.08106 14.407C7.0084 14.8476 6.97325 15.2976 6.97325 15.7453C6.97325 16.1953 7.0084 16.6453 7.08106 17.0836L5.52715 18.4101C5.41136 18.5093 5.32849 18.6413 5.28955 18.7887C5.25062 18.936 5.25746 19.0918 5.30918 19.2351L5.33028 19.2961C5.7545 20.4773 6.38262 21.5672 7.19825 22.5281L7.24043 22.5773C7.339 22.6932 7.47037 22.7765 7.61722 22.8163C7.76408 22.856 7.91953 22.8503 8.06309 22.8L9.98262 22.1179C10.6811 22.6922 11.4615 23.1469 12.3029 23.4633L12.6732 25.4648C12.701 25.6147 12.7737 25.7526 12.8817 25.8602C12.9897 25.9678 13.1279 26.04 13.2779 26.0672L13.3412 26.0789C14.5735 26.3004 15.8355 26.3004 17.0678 26.0789L17.1311 26.0672C17.2811 26.04 17.4193 25.9678 17.5273 25.8602C17.6353 25.7526 17.708 25.6147 17.7357 25.4648L18.1037 23.4726C18.9518 23.1547 19.7414 22.6985 20.4404 22.1226L22.3459 22.8C22.4894 22.8507 22.645 22.8566 22.7919 22.8169C22.9389 22.7771 23.0702 22.6935 23.1686 22.5773L23.2107 22.5281C24.0264 21.5648 24.6545 20.4773 25.0787 19.2961L25.0998 19.2351C25.2053 18.9469 25.1186 18.6187 24.8818 18.4148ZM21.6826 14.6695C21.7412 15.0234 21.7717 15.3867 21.7717 15.75C21.7717 16.1133 21.7412 16.4765 21.6826 16.8304L21.5279 17.7703L23.2787 19.2679C23.0133 19.8794 22.6783 20.4582 22.2803 20.9929L20.1053 20.2219L19.3693 20.8265C18.8092 21.2859 18.1857 21.6469 17.5107 21.9L16.6178 22.2351L16.1982 24.5086C15.5363 24.5836 14.868 24.5836 14.2061 24.5086L13.7865 22.2304L12.9006 21.8906C12.2326 21.6375 11.6115 21.2765 11.0561 20.8195L10.3201 20.2125L8.13106 20.9906C7.73262 20.4539 7.39981 19.875 7.13262 19.2656L8.90215 17.7539L8.74981 16.8164C8.69356 16.4672 8.66309 16.1062 8.66309 15.75C8.66309 15.3914 8.69122 15.0328 8.74981 14.6836L8.90215 13.7461L7.13262 12.2344C7.39747 11.6226 7.73262 11.0461 8.13106 10.5094L10.3201 11.2875L11.0561 10.6804C11.6115 10.2234 12.2326 9.86248 12.9006 9.60935L13.7889 9.27419L14.2084 6.99607C14.867 6.92107 15.5397 6.92107 16.2006 6.99607L16.6201 9.26951L17.5131 9.60466C18.1857 9.85779 18.8115 10.2187 19.3717 10.6781L20.1076 11.2828L22.2826 10.5117C22.6811 11.0484 23.0139 11.6273 23.2811 12.2367L21.5303 13.7344L21.6826 14.6695ZM15.2068 11.3906C12.9287 11.3906 11.0818 13.2375 11.0818 15.5156C11.0818 17.7937 12.9287 19.6406 15.2068 19.6406C17.485 19.6406 19.3318 17.7937 19.3318 15.5156C19.3318 13.2375 17.485 11.3906 15.2068 11.3906ZM17.0631 17.3719C16.8196 17.616 16.5303 17.8096 16.2117 17.9416C15.8932 18.0735 15.5516 18.1411 15.2068 18.1406C14.5061 18.1406 13.8475 17.8664 13.3506 17.3719C13.1064 17.1284 12.9128 16.839 12.7809 16.5205C12.6489 16.2019 12.5813 15.8604 12.5818 15.5156C12.5818 14.8148 12.8561 14.1562 13.3506 13.6594C13.8475 13.1625 14.5061 12.8906 15.2068 12.8906C15.9076 12.8906 16.5662 13.1625 17.0631 13.6594C17.3073 13.9028 17.5009 14.1922 17.6328 14.5107C17.7647 14.8293 17.8324 15.1708 17.8318 15.5156C17.8318 16.2164 17.5576 16.875 17.0631 17.3719Z" fill="white"/>
</svg>
