<svg width="32" height="33" viewBox="0 0 32 33" fill="none" xmlns="http://www.w3.org/2000/svg">
<rect y="0.618042" width="31.08" height="31.5" rx="4" fill="#FC2852"/>
<ellipse cx="15.54" cy="16.3681" rx="12.1045" ry="12.059" fill="white"/>
<path d="M16.6855 18.9384C16.6855 18.4592 16.5163 18.0556 16.1777 17.7275C15.8444 17.3994 15.2793 17.1025 14.4824 16.8369C13.373 16.4983 12.5632 16.0582 12.0527 15.5165C11.5475 14.9697 11.2949 14.277 11.2949 13.4384C11.2949 12.5842 11.5423 11.8837 12.0371 11.3369C12.5371 10.79 13.222 10.4645 14.0918 10.3603V8.64935H15.2559V10.3681C16.1309 10.4879 16.8105 10.8551 17.2949 11.4697C17.7845 12.0842 18.0293 12.9254 18.0293 13.9931H16.5918C16.5918 13.2587 16.4173 12.6754 16.0684 12.2431C15.7194 11.8108 15.248 11.5947 14.6543 11.5947C14.0345 11.5947 13.5605 11.7561 13.2324 12.079C12.9043 12.3967 12.7402 12.8421 12.7402 13.415C12.7402 13.9462 12.9121 14.3707 13.2559 14.6884C13.6048 15.0009 14.1751 15.2874 14.9668 15.5478C15.7637 15.803 16.3835 16.0869 16.8262 16.3994C17.2741 16.7066 17.6022 17.066 17.8105 17.4775C18.0241 17.8889 18.1309 18.3707 18.1309 18.9228C18.1309 19.803 17.8652 20.5113 17.334 21.0478C16.8079 21.5842 16.0684 21.902 15.1152 22.0009V23.4931H13.959V22.0009C12.9902 21.9124 12.2298 21.5686 11.6777 20.9697C11.1309 20.3655 10.8574 19.5478 10.8574 18.5165H12.3027C12.3027 19.2405 12.4928 19.7978 12.873 20.1884C13.2533 20.579 13.7923 20.7744 14.4902 20.7744C15.1725 20.7744 15.709 20.6103 16.0996 20.2822C16.4902 19.954 16.6855 19.5061 16.6855 18.9384Z" fill="#FF2C57"/>
</svg>
