<svg width="32" height="32" viewBox="0 0 32 32" fill="none" xmlns="http://www.w3.org/2000/svg">
<rect y="0.372559" width="31.08" height="31.5" rx="4" fill="#FF6584"/>
<path d="M20.873 15.1226C19.8122 15.1226 18.7948 14.7011 18.0446 13.951C17.2945 13.2008 16.873 12.1834 16.873 11.1226C16.873 10.0617 17.2945 9.04428 18.0446 8.29413C18.7948 7.54399 19.8122 7.12256 20.873 7.12256C21.9339 7.12256 22.9513 7.54399 23.7015 8.29413C24.4516 9.04428 24.873 10.0617 24.873 11.1226C24.873 12.1834 24.4516 13.2008 23.7015 13.951C22.9513 14.7011 21.9339 15.1226 20.873 15.1226ZM8.87305 9.12256H14.873V11.1226H8.87305V23.1226H20.873V17.1226H22.873V23.1226C22.873 23.653 22.6623 24.1617 22.2873 24.5368C21.9122 24.9118 21.4035 25.1226 20.873 25.1226H8.87305C8.34261 25.1226 7.83391 24.9118 7.45883 24.5368C7.08376 24.1617 6.87305 23.653 6.87305 23.1226V11.1226C6.87305 10.5921 7.08376 10.0834 7.45883 9.70834C7.83391 9.33327 8.34261 9.12256 8.87305 9.12256Z" fill="white"/>
</svg>
