<svg width="32" height="32" viewBox="0 0 32 32" fill="none" xmlns="http://www.w3.org/2000/svg">
<rect y="0.249756" width="31.08" height="31.5" rx="4" fill="#85848B"/>
<path d="M23.373 14.9409H21.7793V9.99974C21.7793 8.44018 20.4363 7.17621 18.7793 7.17621H12.9668C11.3098 7.17621 9.9668 8.44018 9.9668 9.99974V14.9409H8.37305C7.9582 14.9409 7.62305 15.2564 7.62305 15.6468V24.1174C7.62305 24.5078 7.9582 24.8233 8.37305 24.8233H23.373C23.7879 24.8233 24.123 24.5078 24.123 24.1174V15.6468C24.123 15.2564 23.7879 14.9409 23.373 14.9409ZM11.6543 9.99974C11.6543 9.31812 12.2426 8.76444 12.9668 8.76444H18.7793C19.5035 8.76444 20.0918 9.31812 20.0918 9.99974V14.9409H11.6543V9.99974ZM22.4355 23.235H9.31055V16.5291H22.4355V23.235ZM15.2168 20.1689V21.338C15.2168 21.435 15.3012 21.5144 15.4043 21.5144H16.3418C16.4449 21.5144 16.5293 21.435 16.5293 21.338V20.1689C16.7228 20.0381 16.8672 19.853 16.9417 19.6401C17.0163 19.4272 17.0171 19.1975 16.9442 18.9842C16.8712 18.7708 16.7282 18.5847 16.5357 18.4527C16.3432 18.3207 16.1112 18.2495 15.873 18.2495C15.6349 18.2495 15.4029 18.3207 15.2104 18.4527C15.0179 18.5847 14.8749 18.7708 14.8019 18.9842C14.7289 19.1975 14.7298 19.4272 14.8044 19.6401C14.8789 19.853 15.0233 20.0381 15.2168 20.1689Z" fill="white"/>
</svg>
