<svg width="32" height="32" viewBox="0 0 32 32" fill="none" xmlns="http://www.w3.org/2000/svg">
<rect width="31.08" height="31.5" rx="4" fill="#6C63FF"/>
<path d="M26.4389 9.71017C25.7217 10.0195 24.9412 10.2422 24.1373 10.3289C24.9719 9.83306 25.597 9.0497 25.8951 8.12579C25.1119 8.5917 24.2539 8.91841 23.3592 9.09142C22.9852 8.69163 22.5329 8.37315 22.0305 8.15581C21.5281 7.93847 20.9863 7.82693 20.4389 7.82813C18.224 7.82813 16.4428 9.62345 16.4428 11.8266C16.4428 12.1359 16.4803 12.4453 16.5412 12.743C13.2248 12.5695 10.267 10.9852 8.30059 8.55938C7.94229 9.17137 7.75452 9.8682 7.75684 10.5774C7.75684 11.9649 8.4623 13.1883 9.53809 13.9078C8.90411 13.8829 8.28498 13.7086 7.73105 13.3992V13.4484C7.73105 15.3914 9.10449 17.0016 10.935 17.3719C10.5913 17.4612 10.2377 17.5068 9.88262 17.5078C9.62246 17.5078 9.37637 17.482 9.12793 17.4469C9.63418 19.0313 11.1084 20.182 12.8639 20.2195C11.4904 21.2953 9.77012 21.9281 7.90215 21.9281C7.56699 21.9281 7.25762 21.9164 6.93652 21.8789C8.7084 23.0156 10.8107 23.6719 13.0748 23.6719C20.4248 23.6719 24.4467 17.5828 24.4467 12.2977C24.4467 12.1242 24.4467 11.9508 24.435 11.7774C25.2131 11.2078 25.8951 10.5024 26.4389 9.71017Z" fill="white"/>
</svg>
