<svg width="32" height="32" viewBox="0 0 32 32" fill="none" xmlns="http://www.w3.org/2000/svg">
<rect y="0.5" width="31.08" height="31.5" rx="4" fill="#5ADCB9"/>
<path d="M3.20703 6.91667V24.0833C3.20703 25.1884 3.64602 26.2482 4.42742 27.0296C5.20882 27.811 6.26863 28.25 7.3737 28.25H23.707C24.8121 28.25 25.8719 27.811 26.6533 27.0296C27.4347 26.2482 27.8737 25.1884 27.8737 24.0833V12.4167C27.8736 11.4562 27.5419 10.5252 26.9345 9.78116C26.3271 9.03712 25.4814 8.52567 24.5404 8.33333V7.08333C24.5404 6.33189 24.2419 5.61122 23.7105 5.07986C23.1791 4.54851 22.4585 4.25 21.707 4.25H6.04036C5.31773 4.24994 4.62238 4.526 4.09656 5.0217C3.57075 5.5174 3.25421 6.19528 3.2117 6.91667H3.20703ZM22.8737 7.08333V8.25H6.04036C5.73095 8.25 5.4342 8.12708 5.21541 7.90829C4.99661 7.6895 4.8737 7.39275 4.8737 7.08333C4.8737 6.77391 4.99661 6.47717 5.21541 6.25838C5.4342 6.03958 5.73095 5.91667 6.04036 5.91667H21.707C22.3517 5.91667 22.8737 6.43933 22.8737 7.08333ZM20.707 17.5833H23.707C23.928 17.5833 24.14 17.6711 24.2963 17.8274C24.4526 17.9837 24.5404 18.1957 24.5404 18.4167C24.5404 18.6377 24.4526 18.8496 24.2963 19.0059C24.14 19.1622 23.928 19.25 23.707 19.25H20.707C20.486 19.25 20.2741 19.1622 20.1178 19.0059C19.9615 18.8496 19.8737 18.6377 19.8737 18.4167C19.8737 18.1957 19.9615 17.9837 20.1178 17.8274C20.2741 17.6711 20.486 17.5833 20.707 17.5833Z" fill="white"/>
</svg>
