<svg width="43" height="43" viewBox="0 0 43 43" fill="none" xmlns="http://www.w3.org/2000/svg">
<circle cx="21.8076" cy="21.8729" r="21" fill="#5ADCB9"/>
<g clip-path="url(#clip0_304_2)">
<path d="M21.8076 13.8729V17.2063" stroke="#FFB20B" stroke-width="4" stroke-linecap="round" stroke-linejoin="round"/>
<path d="M12.4736 23.8729V32.5396C12.4736 32.8932 12.5965 33.2324 12.8153 33.4824C13.0341 33.7325 13.3309 33.8729 13.6403 33.8729H29.9736C30.283 33.8729 30.5798 33.7325 30.7986 33.4824C31.0174 33.2324 31.1403 32.8932 31.1403 32.5396V23.8729" stroke="#FFB20B" stroke-width="4" stroke-linecap="round" stroke-linejoin="round"/>
<path d="M10.1406 20.5196C10.1406 19.6409 10.4461 18.7981 10.9898 18.1768C11.5335 17.5554 12.2709 17.2063 13.0398 17.2063H30.5748C30.9555 17.2062 31.3326 17.2919 31.6843 17.4583C32.0361 17.6248 32.3558 17.8689 32.625 18.1766C32.8942 18.4842 33.1078 18.8495 33.2534 19.2516C33.3991 19.6536 33.474 20.0845 33.474 20.5196V20.705C33.474 21.3121 33.3148 21.9053 33.017 22.408C32.7193 22.9108 32.2965 23.3001 31.8033 23.5256C31.5651 23.6346 31.3091 23.6832 31.0528 23.668C30.7966 23.6528 30.5463 23.5742 30.3193 23.4376L30.1198 23.3176C29.835 23.1463 29.5179 23.0568 29.1961 23.0568C28.8742 23.0568 28.5572 23.1463 28.2724 23.3176C27.9876 23.4888 27.6707 23.5783 27.349 23.5783C27.0272 23.5783 26.7103 23.4888 26.4255 23.3176C26.1407 23.1463 25.8237 23.0568 25.5018 23.0568C25.18 23.0568 24.8629 23.1463 24.5781 23.3176C24.2933 23.4889 23.9763 23.5785 23.6544 23.5785C23.3326 23.5785 23.0155 23.4889 22.7307 23.3176C22.446 23.1464 22.129 23.057 21.8073 23.057C21.4855 23.057 21.1686 23.1464 20.8839 23.3176C20.5991 23.4889 20.282 23.5785 19.9602 23.5785C19.6383 23.5785 19.3213 23.4889 19.0365 23.3176C18.7516 23.1463 18.4346 23.0568 18.1127 23.0568C17.7909 23.0568 17.4739 23.1463 17.189 23.3176C16.9043 23.4888 16.5874 23.5783 16.2656 23.5783C15.9439 23.5783 15.627 23.4888 15.3422 23.3176C15.0574 23.1463 14.7404 23.0568 14.4185 23.0568C14.0966 23.0568 13.7796 23.1463 13.4948 23.3176L13.2953 23.4376C13.0683 23.5741 12.8182 23.6526 12.562 23.6678C12.3059 23.683 12.05 23.6345 11.8119 23.5256C11.3187 23.3003 10.896 22.9112 10.5981 22.4087C10.3002 21.9062 10.1409 21.3133 10.1406 20.7063V20.5196Z" stroke="#FFB20B" stroke-width="4" stroke-linecap="round" stroke-linejoin="round"/>
<path d="M23.5574 11.2063C23.0908 8.53961 21.8074 8.53961 21.8074 8.53961C21.8074 8.53961 20.5241 8.53961 20.0574 11.2063C19.4741 14.5396 24.1408 14.5396 23.5574 11.2063Z" stroke="#FFB20B" stroke-width="4"/>
</g>
<defs>
<clipPath id="clip0_304_2">
<rect width="28" height="32" fill="white" transform="translate(7.80762 5.87292)"/>
</clipPath>
</defs>
</svg>
