<svg width="39" height="45" viewBox="0 0 39 45" fill="none" xmlns="http://www.w3.org/2000/svg">
<path d="M37.6678 10.6527L19.8294 0.205459C19.6531 0.102278 19.4533 0.0479736 19.25 0.0479736C19.0467 0.0479736 18.8469 0.102278 18.6706 0.205459L0.831875 10.6527C0.655001 10.7563 0.508086 10.9055 0.405932 11.0853C0.303779 11.265 0.249995 11.469 0.25 11.6767L0.25 32.5645C0.249995 32.7722 0.303779 32.9762 0.405932 33.1559C0.508086 33.3357 0.655001 33.4849 0.831875 33.5885L18.6706 44.0355C18.8469 44.1386 19.0467 44.1929 19.25 44.1929C19.4533 44.1929 19.6531 44.1386 19.8294 44.0355L37.6681 33.5885C37.845 33.4849 37.9919 33.3357 38.0941 33.1559C38.1962 32.9762 38.25 32.7722 38.25 32.5645V11.6767C38.25 11.2538 38.0282 10.8634 37.6678 10.6527ZM17.8903 6.9021C17.8904 6.9367 17.8815 6.97071 17.8645 7.00068C17.8475 7.03065 17.823 7.05552 17.7935 7.07277L11.4124 10.8138C11.3829 10.8311 11.3585 10.856 11.3415 10.886C11.3245 10.9159 11.3155 10.9499 11.3155 10.9845C11.3155 11.0191 11.3245 11.0531 11.3415 11.083C11.3585 11.113 11.3829 11.1379 11.4124 11.1552L17.7931 14.892C17.8531 14.9271 17.8903 14.992 17.8903 15.0625V17.7775C17.8904 17.8121 17.8815 17.8461 17.8646 17.876C17.8476 17.906 17.8232 17.9309 17.7938 17.9482C17.7644 17.9655 17.731 17.9746 17.697 17.9746C17.6631 17.9746 17.6297 17.9655 17.6003 17.9482L6.00255 11.1564C5.97311 11.1391 5.94867 11.1142 5.93167 11.0842C5.91468 11.0543 5.90573 11.0203 5.90573 10.9857C5.90573 10.9511 5.91468 10.9172 5.93167 10.8872C5.94867 10.8572 5.97311 10.8324 6.00255 10.8151L17.6 4.01571C17.7288 3.9402 17.8903 4.03504 17.8903 4.18638V6.9021ZM32.4972 11.1564L20.8899 17.9539C20.8605 17.9711 20.8272 17.9802 20.7933 17.9802C20.7593 17.9801 20.726 17.971 20.6967 17.9537C20.6673 17.9365 20.6429 17.9116 20.6259 17.8817C20.609 17.8518 20.6 17.8179 20.6 17.7834V15.0684C20.6 14.9979 20.6371 14.933 20.6973 14.8978L27.0875 11.1558C27.2168 11.0803 27.2168 10.8903 27.0875 10.8143L20.6973 7.06748C20.6678 7.05025 20.6433 7.0254 20.6263 6.99546C20.6094 6.96552 20.6004 6.93154 20.6005 6.89696V4.18124C20.6005 4.14666 20.6094 4.11269 20.6264 4.08273C20.6434 4.05278 20.6678 4.0279 20.6972 4.0106C20.7266 3.99331 20.76 3.9842 20.794 3.98419C20.828 3.98419 20.8614 3.99329 20.8908 4.01058L32.4979 10.8154C32.6264 10.8909 32.6264 11.0807 32.4972 11.1564Z" fill="#405261"/>
</svg>
