<svg width="210" height="214" viewBox="0 0 210 214" fill="none" xmlns="http://www.w3.org/2000/svg">
<rect x="0.000976562" y="0.965332" width="209.998" height="212.67" rx="17" fill="white"/>
<g clip-path="url(#clip0_307_5)">
<path d="M177.202 177.85H73.7232C73.6471 177.85 73.5742 177.799 73.5205 177.708C73.4667 177.617 73.4365 177.493 73.4365 177.364V62.4929C73.4367 62.364 73.467 62.2406 73.5208 62.1496C73.5745 62.0587 73.6473 62.0076 73.7232 62.0076C73.799 62.0076 73.8718 62.0587 73.9256 62.1496C73.9793 62.2406 74.0096 62.364 74.0098 62.4929V176.877H177.202C177.278 176.877 177.351 176.929 177.404 177.02C177.458 177.111 177.488 177.235 177.488 177.364C177.488 177.493 177.458 177.616 177.404 177.707C177.351 177.799 177.278 177.85 177.202 177.85Z" fill="#3F3D56"/>
<path d="M177.202 154.974H73.7233C73.6474 154.973 73.5747 154.922 73.5212 154.831C73.4676 154.739 73.4375 154.616 73.4375 154.487C73.4375 154.358 73.4676 154.234 73.5212 154.143C73.5747 154.052 73.6474 154.001 73.7233 154H177.202C177.278 154.001 177.351 154.052 177.404 154.143C177.458 154.234 177.488 154.358 177.488 154.487C177.488 154.616 177.458 154.739 177.404 154.831C177.351 154.922 177.278 154.973 177.202 154.974Z" fill="#3F3D56"/>
<path d="M177.346 136.477H73.8667C73.7907 136.477 73.7178 136.426 73.664 136.335C73.6103 136.244 73.5801 136.12 73.5801 135.991C73.5801 135.862 73.6103 135.738 73.664 135.647C73.7178 135.555 73.7907 135.504 73.8667 135.504H177.346C177.422 135.504 177.494 135.556 177.548 135.647C177.601 135.738 177.631 135.862 177.631 135.991C177.631 136.12 177.601 136.243 177.548 136.334C177.494 136.426 177.422 136.477 177.346 136.477Z" fill="#3F3D56"/>
<path d="M177.345 117.981H73.8659C73.79 117.981 73.7173 117.929 73.6637 117.838C73.6102 117.747 73.5801 117.623 73.5801 117.495C73.5801 117.366 73.6102 117.242 73.6637 117.151C73.7173 117.06 73.79 117.008 73.8659 117.008H177.345C177.421 117.008 177.493 117.06 177.547 117.151C177.601 117.242 177.631 117.366 177.631 117.495C177.631 117.623 177.601 117.747 177.547 117.838C177.493 117.929 177.421 117.981 177.345 117.981Z" fill="#3F3D56"/>
<path d="M177.346 99.4851H73.8667C73.7907 99.4851 73.7178 99.4338 73.664 99.3425C73.6103 99.2512 73.5801 99.1274 73.5801 98.9983C73.5801 98.8692 73.6103 98.7454 73.664 98.6542C73.7178 98.5629 73.7907 98.5116 73.8667 98.5116H177.346C177.422 98.5116 177.495 98.5629 177.548 98.6542C177.602 98.7454 177.632 98.8692 177.632 98.9983C177.632 99.1274 177.602 99.2512 177.548 99.3425C177.495 99.4338 177.422 99.4851 177.346 99.4851Z" fill="#3F3D56"/>
<path d="M177.346 80.989H73.8667C73.7907 80.989 73.7178 80.9377 73.664 80.8464C73.6103 80.7551 73.5801 80.6313 73.5801 80.5022C73.5801 80.3731 73.6103 80.2493 73.664 80.1581C73.7178 80.0668 73.7907 80.0155 73.8667 80.0155H177.346C177.422 80.0155 177.495 80.0668 177.548 80.1581C177.602 80.2493 177.632 80.3731 177.632 80.5022C177.632 80.6313 177.602 80.7551 177.548 80.8464C177.495 80.9377 177.422 80.989 177.346 80.989Z" fill="#3F3D56"/>
<path d="M177.345 62.4928H73.8659C73.79 62.4924 73.7173 62.4409 73.6637 62.3497C73.6102 62.2585 73.5801 62.1349 73.5801 62.006C73.5801 61.8772 73.6102 61.7536 73.6637 61.6624C73.7173 61.5711 73.79 61.5197 73.8659 61.5193H177.345C177.421 61.5197 177.493 61.5711 177.547 61.6624C177.601 61.7536 177.631 61.8772 177.631 62.006C177.631 62.1349 177.601 62.2585 177.547 62.3497C177.493 62.4409 177.421 62.4924 177.345 62.4928Z" fill="#3F3D56"/>
<path d="M83.8763 177.028H80.2628C79.8185 177.028 79.3925 176.728 79.0783 176.194C78.7641 175.661 78.5874 174.937 78.5869 174.183V157.26C78.5874 156.505 78.7641 155.782 79.0783 155.248C79.3925 154.715 79.8185 154.415 80.2628 154.414H83.8763C84.3206 154.415 84.7466 154.715 85.0608 155.248C85.3749 155.782 85.5516 156.505 85.5521 157.26V174.183C85.5516 174.937 85.3749 175.661 85.0608 176.194C84.7466 176.728 84.3206 177.028 83.8763 177.028Z" fill="#3F3D56"/>
<path d="M98.9251 177.028H95.3116C94.8673 177.028 94.4413 176.728 94.1271 176.194C93.813 175.661 93.6362 174.937 93.6357 174.183V142.931C93.6362 142.176 93.813 141.453 94.1271 140.92C94.4413 140.386 94.8673 140.086 95.3116 140.085H98.9251C99.3694 140.086 99.7954 140.386 100.11 140.92C100.424 141.453 100.6 142.176 100.601 142.931V174.183C100.6 174.937 100.424 175.661 100.11 176.194C99.7954 176.728 99.3694 177.028 98.9251 177.028Z" fill="#3F3D56"/>
<path d="M129.023 177.028H125.409C124.965 177.028 124.539 176.728 124.225 176.194C123.911 175.661 123.734 174.937 123.733 174.183V109.214C123.734 108.46 123.911 107.737 124.225 107.203C124.539 106.67 124.965 106.37 125.409 106.369H129.023C129.467 106.37 129.893 106.67 130.207 107.203C130.521 107.737 130.698 108.46 130.699 109.214V174.183C130.698 174.937 130.521 175.661 130.207 176.194C129.893 176.728 129.467 177.028 129.023 177.028Z" fill="#E6E6E6"/>
<path d="M113.83 177.028H110.217C109.773 177.028 109.347 176.727 109.032 176.194C108.718 175.661 108.542 174.937 108.541 174.183V131.462C108.542 130.708 108.718 129.985 109.032 129.451C109.347 128.918 109.773 128.618 110.217 128.617H113.83C114.275 128.618 114.701 128.918 115.015 129.451C115.329 129.985 115.506 130.708 115.506 131.462V174.183C115.506 174.937 115.329 175.661 115.015 176.194C114.701 176.727 114.275 177.028 113.83 177.028Z" fill="#3F3D56"/>
<path d="M144.072 177.028H140.458C140.014 177.028 139.588 176.727 139.274 176.194C138.959 175.661 138.783 174.937 138.782 174.183V92.1154C138.783 91.3609 138.959 90.6376 139.274 90.1041C139.588 89.5706 140.014 89.2705 140.458 89.2697H144.072C144.516 89.2705 144.942 89.5706 145.256 90.1041C145.57 90.6376 145.747 91.3609 145.748 92.1154V174.183C145.747 174.937 145.57 175.661 145.256 176.194C144.942 176.727 144.516 177.028 144.072 177.028Z" fill="#3F3D56"/>
<path d="M159.12 177.028H155.507C155.063 177.028 154.637 176.728 154.322 176.194C154.008 175.661 153.832 174.937 153.831 174.183V109.214C153.832 108.46 154.008 107.737 154.322 107.203C154.637 106.67 155.063 106.37 155.507 106.369H159.12C159.565 106.37 159.991 106.67 160.305 107.203C160.619 107.737 160.796 108.46 160.796 109.214V174.183C160.796 174.937 160.619 175.661 160.305 176.194C159.991 176.728 159.565 177.028 159.12 177.028Z" fill="#3F3D56"/>
<path d="M174.169 177.028H170.556C170.111 177.028 169.685 176.728 169.371 176.194C169.057 175.661 168.88 174.937 168.88 174.183V64.2923C168.88 63.5378 169.057 62.8145 169.371 62.281C169.685 61.7475 170.111 61.4474 170.556 61.4465H174.169C174.614 61.4474 175.04 61.7475 175.354 62.281C175.668 62.8145 175.845 63.5378 175.845 64.2923V174.183C175.845 174.937 175.668 175.661 175.354 176.194C175.04 176.728 174.614 177.028 174.169 177.028Z" fill="#E6E6E6"/>
<path d="M126.229 80.7353C131.994 80.7353 136.667 72.7995 136.667 63.0101C136.667 53.2208 131.994 45.2849 126.229 45.2849C120.464 45.2849 115.79 53.2208 115.79 63.0101C115.79 72.7995 120.464 80.7353 126.229 80.7353Z" fill="#2F2E41"/>
<path d="M122.259 74.6557L117.179 78.9758L118.599 83.7907L123.679 79.4706L122.259 74.6557Z" fill="#2F2E41"/>
<path d="M119.269 83.302C119.57 82.5261 118.826 80.7912 117.608 79.427C116.389 78.0628 115.157 77.5858 114.856 78.3617C114.555 79.1376 115.298 80.8725 116.517 82.2367C117.735 83.601 118.967 84.0779 119.269 83.302Z" fill="#2F2E41"/>
<path d="M130.198 74.6557L128.778 79.4706L133.859 83.7907L135.279 78.9758L130.198 74.6557Z" fill="#2F2E41"/>
<path d="M135.94 82.2367C137.158 80.8725 137.902 79.1376 137.601 78.3617C137.299 77.5858 136.067 78.0627 134.849 79.427C133.63 80.7912 132.887 82.5261 133.188 83.302C133.489 84.0779 134.721 83.6009 135.94 82.2367Z" fill="#2F2E41"/>
<path d="M125.497 64.7324C127.468 64.7324 129.065 62.0202 129.065 58.6744C129.065 55.3287 127.468 52.6165 125.497 52.6165C123.527 52.6165 121.93 55.3287 121.93 58.6744C121.93 62.0202 123.527 64.7324 125.497 64.7324Z" fill="white"/>
<path d="M126.366 62.5759C126.828 61.7906 126.826 60.5128 126.36 59.7219C125.894 58.9311 125.142 58.9266 124.679 59.7119C124.217 60.4972 124.219 61.7749 124.685 62.5658C125.151 63.3566 125.903 63.3612 126.366 62.5759Z" fill="#3F3D56"/>
<path d="M134.464 43.727C134.62 37.1648 131.29 31.6067 127.024 31.3125C122.759 31.0182 119.174 36.0994 119.017 42.6615C118.86 49.2237 121.825 50.7146 126.09 51.0088C130.356 51.3031 134.307 50.2891 134.464 43.727Z" fill="#6C63FF"/>
<path d="M140.48 72.2916C141.167 71.2907 140.201 67.4687 138.324 63.7548C136.446 60.0409 134.367 57.8416 133.681 58.8425C132.994 59.8434 133.96 63.6655 135.837 67.3794C137.715 71.0932 139.793 73.2925 140.48 72.2916Z" fill="#2F2E41"/>
<path d="M116.649 67.3794C118.526 63.6655 119.492 59.8434 118.805 58.8425C118.119 57.8416 116.04 60.0409 114.162 63.7548C112.285 67.4687 111.319 71.2908 112.006 72.2916C112.693 73.2925 114.771 71.0932 116.649 67.3794Z" fill="#2F2E41"/>
<path d="M129.096 69.9954C129.152 70.5172 129.147 71.0526 129.081 71.571C129.015 72.0894 128.889 72.5807 128.712 73.0169C128.534 73.453 128.307 73.8254 128.045 74.1128C127.782 74.4003 127.489 74.5971 127.182 74.6921C126.874 74.7871 126.559 74.7784 126.254 74.6664C125.949 74.5545 125.659 74.3416 125.402 74.0398C125.146 73.738 124.926 73.3532 124.757 72.9075C124.588 72.4618 124.472 71.9638 124.416 71.442L124.415 71.4342C124.181 69.2394 125.18 68.4628 126.473 68.0654C127.765 67.6681 128.862 67.8006 129.096 69.9954Z" fill="white"/>
<path d="M209.766 162.912C210.477 161.9 209.516 157.962 207.619 154.115C205.722 150.268 203.607 147.969 202.896 148.98C202.185 149.991 203.146 153.929 205.043 157.777C206.94 161.624 209.054 163.923 209.766 162.912Z" fill="#2F2E41"/>
<path d="M205.101 158.537C206.97 149.016 203.94 138.726 198.333 135.553C192.727 132.379 186.667 137.525 184.798 147.045C182.929 156.565 185.959 166.855 191.566 170.029C197.172 173.202 203.232 168.057 205.101 158.537Z" fill="#2F2E41"/>
<path d="M199.478 167.051H196.228V176.941H199.478V167.051Z" fill="#2F2E41"/>
<path d="M192.977 167.051H189.727V176.941H192.977V167.051Z" fill="#2F2E41"/>
<path d="M196.77 178.781C198.266 178.781 199.479 178.009 199.479 177.056C199.479 176.103 198.266 175.331 196.77 175.331C195.273 175.331 194.061 176.103 194.061 177.056C194.061 178.009 195.273 178.781 196.77 178.781Z" fill="#2F2E41"/>
<path d="M190.268 178.551C191.764 178.551 192.977 177.779 192.977 176.826C192.977 175.873 191.764 175.101 190.268 175.101C188.771 175.101 187.559 175.873 187.559 176.826C187.559 177.779 188.771 178.551 190.268 178.551Z" fill="#2F2E41"/>
<path d="M191.59 129.95C192.545 123.416 196.763 119.571 201.01 121.362C205.257 123.152 207.926 129.901 206.97 136.435C206.015 142.969 202.845 142.99 198.598 141.199C194.351 139.409 190.634 136.484 191.59 129.95Z" fill="#CCCCCC"/>
<path d="M187.731 148.253C188.128 146.83 186.286 143.933 183.616 141.783C180.947 139.632 178.46 139.043 178.063 140.466C177.665 141.889 179.507 144.786 182.177 146.936C184.847 149.087 187.333 149.676 187.731 148.253Z" fill="#2F2E41"/>
<path d="M193.35 155.015C195.32 155.015 196.917 152.302 196.917 148.957C196.917 145.611 195.32 142.899 193.35 142.899C191.379 142.899 189.782 145.611 189.782 148.957C189.782 152.302 191.379 155.015 193.35 155.015Z" fill="white"/>
<path d="M191.884 148.804C192.54 148.804 193.073 147.9 193.073 146.785C193.073 145.67 192.54 144.766 191.884 144.766C191.227 144.766 190.694 145.67 190.694 146.785C190.694 147.9 191.227 148.804 191.884 148.804Z" fill="#3F3D56"/>
<path d="M195.588 161.578C195.7 162.631 195.562 163.718 195.203 164.598C194.844 165.478 194.294 166.08 193.674 166.272C193.053 166.464 192.414 166.229 191.895 165.62C191.376 165.011 191.021 164.078 190.908 163.025L190.907 163.017C190.673 160.822 191.673 160.045 192.965 159.648C194.258 159.251 195.354 159.383 195.588 161.578Z" fill="white"/>
<path d="M180.425 183.3H176.812C176.367 183.299 175.941 182.999 175.627 182.466C175.313 181.932 175.136 181.209 175.136 180.455V70.5641C175.136 69.8096 175.313 69.0863 175.627 68.5528C175.941 68.0193 176.367 67.7192 176.812 67.7184H180.425C180.869 67.7192 181.295 68.0193 181.61 68.5528C181.924 69.0863 182.1 69.8096 182.101 70.5641V180.455C182.1 181.209 181.924 181.932 181.61 182.466C181.295 182.999 180.869 183.299 180.425 183.3Z" fill="#6C63FF"/>
<path d="M28.3608 170.961C34.2706 170.961 39.0614 162.826 39.0614 152.791C39.0614 142.755 34.2706 134.62 28.3608 134.62C22.451 134.62 17.6602 142.755 17.6602 152.791C17.6602 162.826 22.451 170.961 28.3608 170.961Z" fill="#2F2E41"/>
<path d="M26.7352 167.051H23.4844V176.941H26.7352V167.051Z" fill="#2F2E41"/>
<path d="M33.2372 167.051H29.9863V176.941H33.2372V167.051Z" fill="#2F2E41"/>
<path d="M26.1934 178.781C27.6895 178.781 28.9024 178.009 28.9024 177.056C28.9024 176.103 27.6895 175.331 26.1934 175.331C24.6972 175.331 23.4844 176.103 23.4844 177.056C23.4844 178.009 24.6972 178.781 26.1934 178.781Z" fill="#2F2E41"/>
<path d="M32.6954 178.551C34.1915 178.551 35.4044 177.779 35.4044 176.826C35.4044 175.873 34.1915 175.101 32.6954 175.101C31.1992 175.101 29.9863 175.873 29.9863 176.826C29.9863 177.779 31.1992 178.551 32.6954 178.551Z" fill="#2F2E41"/>
<path d="M28.6318 154.401C30.6516 154.401 32.289 151.62 32.289 148.191C32.289 144.761 30.6516 141.98 28.6318 141.98C26.612 141.98 24.9746 144.761 24.9746 148.191C24.9746 151.62 26.612 154.401 28.6318 154.401Z" fill="white"/>
<path d="M28.6312 150.261C29.3044 150.261 29.8502 149.334 29.8502 148.191C29.8502 147.047 29.3044 146.12 28.6312 146.12C27.9579 146.12 27.4121 147.047 27.4121 148.191C27.4121 149.334 27.9579 150.261 28.6312 150.261Z" fill="#3F3D56"/>
<path d="M17.9805 135.893C17.1164 129.322 19.8784 122.683 24.1495 121.063C28.4205 119.444 32.5833 123.458 33.4474 130.028C34.3114 136.599 31.4808 139.022 27.2097 140.642C22.9387 142.261 18.8445 142.463 17.9805 135.893Z" fill="#CCCCCC"/>
<path d="M36.1633 87.8768C37.2183 83.1899 37.3711 78.9345 36.5046 78.3721C35.6381 77.8098 34.0804 81.1534 33.0255 85.8403C31.9705 90.5272 31.8177 94.7826 32.6842 95.3449C33.5507 95.9073 35.1083 92.5637 36.1633 87.8768Z" fill="#2F2E41"/>
<path d="M35.2657 103.49C36.2124 93.5847 32.2508 84.2515 26.4173 82.644C20.5838 81.0366 15.0875 87.7635 14.1408 97.6692C13.1942 107.575 17.1557 116.908 22.9892 118.515C28.8227 120.123 34.3191 113.396 35.2657 103.49Z" fill="#2F2E41"/>
<path d="M23.078 114.84H19.8271V124.73H23.078V114.84Z" fill="#2F2E41"/>
<path d="M29.5799 114.84H26.3291V124.73H29.5799V114.84Z" fill="#2F2E41"/>
<path d="M22.5362 126.57C24.0323 126.57 25.2452 125.798 25.2452 124.845C25.2452 123.892 24.0323 123.12 22.5362 123.12C21.04 123.12 19.8271 123.892 19.8271 124.845C19.8271 125.798 21.04 126.57 22.5362 126.57Z" fill="#2F2E41"/>
<path d="M29.0381 126.34C30.5343 126.34 31.7472 125.568 31.7472 124.615C31.7472 123.662 30.5343 122.89 29.0381 122.89C27.542 122.89 26.3291 123.662 26.3291 124.615C26.3291 125.568 27.542 126.34 29.0381 126.34Z" fill="#2F2E41"/>
<path d="M25.0814 102.187C27.1003 102.086 28.6889 99.2255 28.6296 95.7972C28.5702 92.3689 26.8855 89.6714 24.8665 89.7722C22.8476 89.8729 21.259 92.7338 21.3184 96.162C21.3777 99.5903 23.0625 102.288 25.0814 102.187Z" fill="white"/>
<path d="M24.974 98.0496C25.6472 98.0496 26.193 97.1228 26.193 95.9796C26.193 94.8363 25.6472 93.9095 24.974 93.9095C24.3007 93.9095 23.7549 94.8363 23.7549 95.9796C23.7549 97.1228 24.3007 98.0496 24.974 98.0496Z" fill="#3F3D56"/>
<path d="M14.3232 83.6819C13.4592 77.1112 16.2212 70.4718 20.4922 68.8524C24.7633 67.233 28.9261 71.2468 29.7901 77.8174C30.6541 84.388 27.8236 86.8114 23.5525 88.4308C19.2814 90.0503 15.1873 90.2525 14.3232 83.6819Z" fill="#6C63FF"/>
<path d="M17.4848 96.0418C17.8823 94.6186 16.0402 91.7218 13.3704 89.5716C10.7005 87.4214 8.21397 86.8321 7.81645 88.2553C7.41893 89.6785 9.26101 92.5753 11.9308 94.7255C14.6007 96.8757 17.0873 97.4651 17.4848 96.0418Z" fill="#2F2E41"/>
<path d="M19.4473 107.135C19.4473 108.913 22.1439 112.425 25.1362 112.425C28.1285 112.425 30.9341 107.418 30.9341 105.64C30.9341 103.861 28.1285 105.985 25.1362 105.985C22.1439 105.985 19.4473 105.356 19.4473 107.135Z" fill="white"/>
<path d="M128.7 129.061L125.194 130.541C124.762 130.722 124.306 130.605 123.926 130.216C123.545 129.827 123.271 129.197 123.163 128.465L113.936 65.4146C113.829 64.6822 113.898 63.9078 114.127 63.2614C114.356 62.615 114.727 62.1494 115.158 61.9666L118.665 60.4868C119.096 60.3056 119.552 60.4224 119.933 60.8115C120.314 61.2006 120.588 61.8302 120.695 62.5622L129.923 125.613C130.029 126.345 129.961 127.12 129.731 127.766C129.502 128.412 129.132 128.878 128.7 129.061Z" fill="#6C63FF"/>
<path d="M45.3533 96.6852L37.4767 99.296C37.3491 99.339 37.2175 99.332 37.0917 99.2756C36.966 99.2191 36.8495 99.1147 36.7512 98.9702C36.6508 98.824 36.5714 98.6408 36.519 98.4347C36.4666 98.2285 36.4426 98.0047 36.4489 97.7804C36.5832 92.2958 35.9554 86.8345 34.6162 81.8384C34.5608 81.6345 34.5335 81.4118 34.5363 81.1873C34.5392 80.9628 34.5722 80.7424 34.6329 80.5428C34.692 80.3462 34.7768 80.175 34.8808 80.0424C34.9848 79.9098 35.1052 79.8192 35.233 79.7776L43.1096 77.1668C43.311 77.1008 43.5196 77.1582 43.6983 77.3289C43.877 77.4996 44.0143 77.7724 44.0857 78.0989C45.2508 83.595 45.9137 89.3616 46.0513 95.1983C46.0575 95.5463 45.9907 95.8868 45.8629 96.1591C45.7351 96.4314 45.5545 96.6178 45.3533 96.6852Z" fill="#FF6584"/>
<path d="M10.8172 108.92L2.94055 111.531C2.81299 111.574 2.68133 111.567 2.55561 111.511C2.42988 111.454 2.31339 111.35 2.21503 111.205C2.11465 111.059 2.03525 110.876 1.98286 110.67C1.93048 110.464 1.90649 110.24 1.91274 110.016C2.0471 104.531 1.41929 99.0697 0.080077 94.0736C0.0246387 93.8697 -0.00267787 93.6471 0.000206885 93.4226C0.00309163 93.1981 0.036102 92.9776 0.0967243 92.7781C0.155878 92.5814 0.240677 92.4102 0.344672 92.2776C0.448666 92.145 0.569108 92.0545 0.696829 92.0128L8.57347 89.402C8.77481 89.336 8.98342 89.3935 9.16216 89.5641C9.3409 89.7348 9.47816 90.0077 9.54953 90.3341C10.7146 95.8302 11.3775 101.597 11.5152 107.433C11.5214 107.782 11.4546 108.122 11.3268 108.394C11.199 108.667 11.0184 108.853 10.8172 108.92Z" fill="#CCCCCC"/>
<path d="M62.3454 66.647C63.8548 66.647 65.0785 64.5692 65.0785 62.0061C65.0785 59.4429 63.8548 57.3651 62.3454 57.3651C60.836 57.3651 59.6123 59.4429 59.6123 62.0061C59.6123 64.5692 60.836 66.647 62.3454 66.647Z" fill="#E6E6E6"/>
<path d="M62.3454 85.1432C63.8548 85.1432 65.0785 83.0654 65.0785 80.5023C65.0785 77.9392 63.8548 75.8613 62.3454 75.8613C60.836 75.8613 59.6123 77.9392 59.6123 80.5023C59.6123 83.0654 60.836 85.1432 62.3454 85.1432Z" fill="#E6E6E6"/>
<path d="M62.3454 103.639C63.8548 103.639 65.0785 101.562 65.0785 98.9984C65.0785 96.4352 63.8548 94.3574 62.3454 94.3574C60.836 94.3574 59.6123 96.4352 59.6123 98.9984C59.6123 101.562 60.836 103.639 62.3454 103.639Z" fill="#E6E6E6"/>
<path d="M62.3454 122.136C63.8548 122.136 65.0785 120.058 65.0785 117.495C65.0785 114.931 63.8548 112.854 62.3454 112.854C60.836 112.854 59.6123 114.931 59.6123 117.495C59.6123 120.058 60.836 122.136 62.3454 122.136Z" fill="#E6E6E6"/>
<path d="M62.3454 140.632C63.8548 140.632 65.0785 138.554 65.0785 135.991C65.0785 133.428 63.8548 131.35 62.3454 131.35C60.836 131.35 59.6123 133.428 59.6123 135.991C59.6123 138.554 60.836 140.632 62.3454 140.632Z" fill="#E6E6E6"/>
<path d="M62.3454 159.128C63.8548 159.128 65.0785 157.05 65.0785 154.487C65.0785 151.924 63.8548 149.846 62.3454 149.846C60.836 149.846 59.6123 151.924 59.6123 154.487C59.6123 157.05 60.836 159.128 62.3454 159.128Z" fill="#E6E6E6"/>
</g>
<defs>
<clipPath id="clip0_307_5">
<rect width="210" height="152" fill="white" transform="translate(0 31.3003)"/>
</clipPath>
</defs>
</svg>
